<?xml version="1.0" encoding="utf-8"?>
<!-- Generator: Adobe Illustrator 25.2.1, SVG Export Plug-In . SVG Version: 6.00 Build 0)  -->
<svg version="1.1" id="Layer_1" xmlns="http://www.w3.org/2000/svg" xmlns:xlink="http://www.w3.org/1999/xlink" x="0px" y="0px"
	 viewBox="0 0 29 29" style="enable-background:new 0 0 29 29;" xml:space="preserve">
<style type="text/css">
	.st0{fill:#FFFFFF;}
	.st1{fill:#EC2040;}
</style>
<g id="Group_16684" transform="translate(-1153 -676)">
	<g id="Ellipse_6" transform="translate(1153 676)">
		<g>
			<circle class="st0" cx="14.5" cy="14.5" r="14.5"/>
		</g>
		<g>
			<path class="st1" d="M14.5,29C6.5,29,0,22.5,0,14.5S6.5,0,14.5,0S29,6.5,29,14.5S22.5,29,14.5,29z M14.5,1C7.1,1,1,7.1,1,14.5
				C1,21.9,7.1,28,14.5,28C21.9,28,28,21.9,28,14.5C28,7.1,21.9,1,14.5,1z"/>
		</g>
	</g>
	<g id="Path_44858">
		<path class="st1" d="M1165.5,696.5c-0.3,0-0.5-0.1-0.7-0.3c-0.4-0.4-0.4-1,0-1.4l4.3-4.3l-4.3-4.3c-0.4-0.4-0.4-1,0-1.4
			s1-0.4,1.4,0l5,5c0.4,0.4,0.4,1,0,1.4l-5,5C1166,696.4,1165.8,696.5,1165.5,696.5z"/>
	</g>
</g>
</svg>
