<svg xmlns="http://www.w3.org/2000/svg" width="28.028" height="28.028" viewBox="0 0 28.028 28.028">
  <g id="museum" transform="translate(-0.001 0)">
    <path id="Path_48785" data-name="Path 48785" d="M396.426,268.344h3.284v7.864h-3.284Zm0,0" transform="translate(-374.724 -253.654)" fill="#0f2a4a"/>
    <path id="Path_48786" data-name="Path 48786" d="M282.809,268.344h3.285v7.864h-3.285Zm0,0" transform="translate(-267.326 -253.654)" fill="#0f2a4a"/>
    <path id="Path_48787" data-name="Path 48787" d="M169.191,268.344h3.285v7.864h-3.285Zm0,0" transform="translate(-159.928 -253.654)" fill="#0f2a4a"/>
    <path id="Path_48788" data-name="Path 48788" d="M55.578,268.344h3.284v7.864H55.578Zm0,0" transform="translate(-52.534 -253.654)" fill="#0f2a4a"/>
    <path id="Path_48789" data-name="Path 48789" d="M59.711,209.165v-.821H35.578v.821a.821.821,0,0,0,.821.821H58.89A.821.821,0,0,0,59.711,209.165Zm0,0" transform="translate(-33.629 -196.939)" fill="#0f2a4a"/>
    <path id="Path_48790" data-name="Path 48790" d="M27.22,442H.836a.821.821,0,0,0-.821.821v2.19a.821.821,0,0,0,.821.821H27.22a.821.821,0,0,0,.821-.821v-2.19A.821.821,0,0,0,27.22,442Zm0,0" transform="translate(-0.013 -417.804)" fill="#0f2a4a"/>
    <path id="Path_48791" data-name="Path 48791" d="M.822,9.763H27.208a.821.821,0,0,0,.43-1.52L14.446.122a.821.821,0,0,0-.861,0L.392,8.242a.821.821,0,0,0,.43,1.52ZM13.457,4.83h1.116a.821.821,0,1,1,0,1.642H13.457a.821.821,0,1,1,0-1.642Zm0,0" transform="translate(0 0)" fill="#0f2a4a"/>
  </g>
</svg>
