<svg xmlns="http://www.w3.org/2000/svg" width="29.584" height="22.999" viewBox="0 0 29.584 22.999">
  <g id="_x31_1-DSLR_Camera" transform="translate(0 -34.2)">
    <path id="Path_48780" data-name="Path 48780" d="M27.428,37.275H19.6l-1.581-2.657a.858.858,0,0,0-.737-.419H12.305a.857.857,0,0,0-.737.419L9.987,37.275H7.417V36.69a.857.857,0,0,0-.857-.857H3.387a.857.857,0,0,0-.857.857v.586H2.156A2.156,2.156,0,0,0,0,39.432V55.043A2.156,2.156,0,0,0,2.156,57.2H27.428a2.156,2.156,0,0,0,2.156-2.156V39.432A2.156,2.156,0,0,0,27.428,37.275Zm-12.636,16.1a6.137,6.137,0,1,1,6.137-6.138A6.137,6.137,0,0,1,14.792,53.375ZM26.083,41.721H23.4a.858.858,0,0,1,0-1.715h2.687a.858.858,0,0,1,0,1.715Z" fill="#fff"/>
    <circle id="Ellipse_1465" data-name="Ellipse 1465" cx="4.288" cy="4.288" r="4.288" transform="translate(10.504 42.95)" fill="#fff"/>
  </g>
</svg>
