<svg id="date" xmlns="http://www.w3.org/2000/svg" width="29.153" height="29.153" viewBox="0 0 29.153 29.153">
  <g id="Group_17575" data-name="Group 17575" transform="translate(6.247)">
    <g id="Group_17574" data-name="Group 17574">
      <path id="Path_48781" data-name="Path 48781" d="M103.441,0A1.041,1.041,0,0,0,102.4,1.041V3.124h2.082V1.041A1.041,1.041,0,0,0,103.441,0Z" transform="translate(-102.4)" fill="#0f2a4a"/>
    </g>
  </g>
  <g id="Group_17577" data-name="Group 17577" transform="translate(20.823)">
    <g id="Group_17576" data-name="Group 17576">
      <path id="Path_48782" data-name="Path 48782" d="M342.374,0a1.041,1.041,0,0,0-1.041,1.041V3.124h2.082V1.041A1.041,1.041,0,0,0,342.374,0Z" transform="translate(-341.333)" fill="#0f2a4a"/>
    </g>
  </g>
  <g id="Group_17579" data-name="Group 17579" transform="translate(0 3.124)">
    <g id="Group_17578" data-name="Group 17578">
      <path id="Path_48783" data-name="Path 48783" d="M26.029,51.2H22.906v4.165a1.041,1.041,0,1,1-2.082,0V51.2H8.329v4.165a1.041,1.041,0,0,1-2.082,0V51.2H3.124A3.124,3.124,0,0,0,0,54.324V74.106a3.124,3.124,0,0,0,3.124,3.124H26.029a3.124,3.124,0,0,0,3.124-3.124V54.324A3.124,3.124,0,0,0,26.029,51.2ZM27.07,74.106a1.041,1.041,0,0,1-1.041,1.041H3.124a1.041,1.041,0,0,1-1.041-1.041V60.571H27.07Z" transform="translate(0 -51.2)" fill="#0f2a4a"/>
    </g>
  </g>
  <g id="Group_17581" data-name="Group 17581" transform="translate(7.288 14.577)">
    <g id="Group_17580" data-name="Group 17580">
      <path id="Path_48784" data-name="Path 48784" d="M133.735,239.243a1.041,1.041,0,0,0-1.473,0l-7.593,7.593-3.429-3.429a1.041,1.041,0,0,0-1.472,1.473l4.165,4.165a1.041,1.041,0,0,0,1.472,0l8.329-8.329A1.041,1.041,0,0,0,133.735,239.243Z" transform="translate(-119.463 -238.938)" fill="#0f2a4a"/>
    </g>
  </g>
</svg>
