<svg xmlns="http://www.w3.org/2000/svg" width="15.318" height="22.477" viewBox="0 0 15.318 22.477">
  <g id="Group_17029" data-name="Group 17029" transform="translate(-140.089 545.581)">
    <path id="Path_47465" data-name="Path 47465" d="M141.365-167.834c-.035-.065-.108-.052-.162-.077a.885.885,0,0,1-.521-.935.862.862,0,0,1,.749-.759,1.859,1.859,0,0,1,.271-.02h12.241a.928.928,0,0,1,1.009.7.893.893,0,0,1-.549,1.035c-.042.017-.1,0-.124.06Z" transform="translate(-0.078 -355.771)" fill="#ec2040" stroke="rgba(0,0,0,0)" stroke-width="1"/>
    <path id="Path_47466" data-name="Path 47466" d="M146.852-530.292v-.224q0-6.76,0-13.521a.964.964,0,0,1,.34-.836.842.842,0,0,1,.906-.12.843.843,0,0,1,.532.741c.008.1.008.2.008.293q0,6.718,0,13.437v.243c.093-.017.133-.086.183-.136q2.239-2.237,4.475-4.478a.92.92,0,0,1,.963-.3.883.883,0,0,1,.45,1.4,2.23,2.23,0,0,1-.185.2l-6.048,6.048a.911.911,0,0,1-1.457,0q-3.046-3.046-6.092-6.092a.9.9,0,0,1-.012-1.393.884.884,0,0,1,1.135,0c.07.058.134.122.2.187q2.2,2.2,4.4,4.4c.054.054.1.116.148.174Z" transform="translate(0 0)" fill="#ec2040" stroke="rgba(0,0,0,0)" stroke-width="1"/>
  </g>
</svg>
