<svg xmlns="http://www.w3.org/2000/svg" width="12.663" height="18.495" viewBox="0 0 12.663 18.495">
  <g id="Group_17689" data-name="Group 17689" transform="translate(-140.089 545.581)">
    <path id="Path_47465" data-name="Path 47465" d="M141.236-168.166c-.028-.053-.088-.042-.132-.062a.721.721,0,0,1-.424-.762.7.7,0,0,1,.61-.618,1.511,1.511,0,0,1,.221-.016h9.97a.756.756,0,0,1,.822.568.727.727,0,0,1-.447.843c-.034.014-.083,0-.1.049Z" transform="translate(-0.079 -359.42)" fill="#d1d1d1" stroke="rgba(0,0,0,0)" stroke-width="1"/>
    <path id="Path_47466" data-name="Path 47466" d="M145.691-533.034v-.183q0-5.507,0-11.013a.785.785,0,0,1,.277-.681.686.686,0,0,1,.738-.1.687.687,0,0,1,.433.6c.007.079.006.159.006.239q0,5.472,0,10.945v.2c.076-.014.108-.07.149-.111q1.824-1.822,3.645-3.647a.749.749,0,0,1,.784-.241.719.719,0,0,1,.367,1.139,1.819,1.819,0,0,1-.15.163l-4.926,4.926a.742.742,0,0,1-1.186,0l-4.962-4.962a.733.733,0,0,1-.01-1.135.72.72,0,0,1,.925,0c.057.047.109.1.162.152l3.585,3.587c.044.044.081.094.121.142Z" transform="translate(0 0)" fill="#d1d1d1" stroke="rgba(0,0,0,0)" stroke-width="1"/>
  </g>
</svg>
