<?xml version="1.0" encoding="utf-8"?>
<!-- Generator: Adobe Illustrator 24.3.0, SVG Export Plug-In . SVG Version: 6.00 Build 0)  -->
<svg version="1.1" id="Layer_1" xmlns="http://www.w3.org/2000/svg" xmlns:xlink="http://www.w3.org/1999/xlink" x="0px" y="0px"
	 viewBox="0 0 13.5 13.2" style="enable-background:new 0 0 13.5 13.2;" xml:space="preserve">
<style type="text/css">
	.st0{fill:#EC2040;}
</style>
<g id="Path_43264">
	<path class="st0" d="M12.7,13.2H7.9c-0.4,0-0.8-0.3-0.8-0.8s0.3-0.8,0.8-0.8h4.8c0.4,0,0.8,0.3,0.8,0.8S13.1,13.2,12.7,13.2z"/>
</g>
<g id="Path_43265">
	<path class="st0" d="M1.3,13.2c-0.3,0-0.6-0.2-0.7-0.6l-0.5-2.3c-0.1-0.5,0-1.1,0.4-1.6l6.3-7.8c0,0,0,0,0,0C7.5,0,8.8-0.1,9.8,0.6
		l1.1,0.9c1,0.6,1.3,1.9,0.7,2.9c-0.1,0.1-0.1,0.1-6.4,8.1c-0.4,0.4-0.9,0.7-1.4,0.7L1.3,13.2C1.3,13.2,1.3,13.2,1.3,13.2z M7.8,1.9
		L1.6,9.7C1.5,9.8,1.5,9.9,1.5,10l0.4,1.7l1.8,0c0.1,0,0.2-0.1,0.3-0.1c2.1-2.7,6.2-7.8,6.3-7.9c0.2-0.3,0.1-0.7-0.3-0.9l-1.2-1
		C8.5,1.5,8.1,1.6,7.8,1.9z"/>
</g>
</svg>
