<?xml version="1.0" encoding="utf-8"?>
<!-- Generator: Adobe Illustrator 24.3.0, SVG Export Plug-In . SVG Version: 6.00 Build 0)  -->
<svg version="1.1" id="Layer_1" xmlns="http://www.w3.org/2000/svg" xmlns:xlink="http://www.w3.org/1999/xlink" x="0px" y="0px"
	 viewBox="0 0 23.5 23" style="enable-background:new 0 0 23.5 23;" xml:space="preserve">
<style type="text/css">
	.st0{fill:#FFFFFF;}
	.st1{fill-rule:evenodd;clip-rule:evenodd;fill:#FFFFFF;}
</style>
<g id="Path_43264">
	<path class="st0" d="M22.7,23h-8.9c-0.4,0-0.8-0.3-0.8-0.8s0.3-0.8,0.8-0.8h8.9c0.4,0,0.8,0.3,0.8,0.8S23.2,23,22.7,23z"/>
</g>
<g id="Path_43265">
	<path class="st1" d="M12.7,1.9c1-1.1,2.6-1.3,3.8-0.4l2.1,1.6c1.2,0.7,1.7,2.3,0.9,3.6c0,0,0,0,0,0.1c0,0.1-11.6,14.6-11.6,14.6
		c-0.4,0.5-1,0.8-1.6,0.8l-4.4,0.1l-1-4.2c-0.1-0.6,0-1.2,0.4-1.7L12.7,1.9z"/>
	<path class="st0" d="M1.8,23c-0.3,0-0.6-0.2-0.7-0.6l-1-4.2c-0.2-0.8,0-1.7,0.5-2.3L12.1,1.4c0,0,0,0,0,0C13.4,0,15.5-0.2,17,1
		l2.1,1.6c0.7,0.4,1.2,1.1,1.5,2c0.2,0.9,0.1,1.8-0.4,2.6c-0.1,0.1-0.1,0.2-11.7,14.7c-0.5,0.7-1.3,1-2.2,1.1L1.8,23
		C1.8,23,1.8,23,1.8,23z M13.3,2.4L1.8,16.8c-0.2,0.3-0.3,0.7-0.2,1.1l0.9,3.7l3.8,0c0.4,0,0.8-0.2,1-0.5C11.2,16,18.7,6.7,18.9,6.4
		C19.2,6,19.2,5.5,19.1,5s-0.4-0.9-0.9-1.1L16,2.1C15.2,1.5,14,1.6,13.3,2.4z"/>
</g>
</svg>
