<?xml version="1.0" encoding="utf-8"?>
<!-- Generator: Adobe Illustrator 24.3.0, SVG Export Plug-In . SVG Version: 6.00 Build 0)  -->
<svg version="1.1" id="Layer_1" xmlns="http://www.w3.org/2000/svg" xmlns:xlink="http://www.w3.org/1999/xlink" x="0px" y="0px"
	 viewBox="0 0 14.2 14" style="enable-background:new 0 0 14.2 14;" xml:space="preserve">
<style type="text/css">
	.st0{fill:#565C63;}
</style>
<g id="Path_43264">
	<path class="st0" d="M13.5,14H8.4c-0.4,0-0.8-0.3-0.8-0.8s0.3-0.8,0.8-0.8h5.1c0.4,0,0.8,0.3,0.8,0.8S13.9,14,13.5,14z"/>
</g>
<g id="Path_43265">
	<path class="st0" d="M1.4,14c-0.3,0-0.6-0.2-0.7-0.6l-0.6-2.5c-0.1-0.6,0-1.2,0.4-1.6L7.1,1c0,0,0,0,0,0c0.8-1,2.2-1.1,3.2-0.3
		l1.2,0.9c1,0.6,1.4,2,0.7,3.1c-0.1,0.1-0.1,0.1-6.8,8.6c-0.4,0.5-0.9,0.7-1.5,0.7L1.4,14C1.4,14,1.4,14,1.4,14z M8.3,1.9l-6.7,8.3
		c-0.1,0.1-0.1,0.2-0.1,0.3L2,12.5l2,0c0.1,0,0.3-0.1,0.4-0.2C6.5,9.4,10.9,4,11,3.8c0.2-0.3,0.1-0.8-0.3-1l-1.3-1
		C9.1,1.5,8.5,1.6,8.3,1.9z"/>
</g>
</svg>
