<?xml version="1.0" encoding="utf-8"?>
<!-- Generator: Adobe Illustrator 25.2.1, SVG Export Plug-In . SVG Version: 6.00 Build 0)  -->
<svg version="1.1" id="Layer_1" xmlns="http://www.w3.org/2000/svg" xmlns:xlink="http://www.w3.org/1999/xlink" x="0px" y="0px"
	 viewBox="0 0 18.1 17.7" style="enable-background:new 0 0 18.1 17.7;" xml:space="preserve">
<style type="text/css">
	.st0{fill:#EC2040;}
</style>
<g id="Group_16397" transform="translate(0.757 0.909)">
	<g id="Path_43264">
		<path class="st0" d="M16.6,16.8H9.9c-0.4,0-0.8-0.3-0.8-0.8s0.3-0.8,0.8-0.8h6.7c0.4,0,0.8,0.3,0.8,0.8S17,16.8,16.6,16.8z"/>
	</g>
	<g id="Path_43265">
		<path class="st0" d="M0.8,16.8c-0.3,0-0.6-0.2-0.7-0.6l-0.8-3.2c-0.2-0.7,0-1.4,0.4-1.9L8.4,0.3c0,0,0,0,0,0
			c1-1.2,2.7-1.3,3.9-0.4L14,1.1c1.2,0.7,1.6,2.4,0.9,3.7c-0.1,0.1-0.1,0.1-8.9,11.1c-0.4,0.5-1.1,0.9-1.8,0.9L0.8,16.8
			C0.8,16.8,0.8,16.8,0.8,16.8z M9.6,1.2L0.9,12.1c-0.1,0.2-0.2,0.4-0.1,0.6l0.6,2.6l2.7,0c0.2,0,0.5-0.1,0.6-0.3
			c3-3.7,8.6-10.8,8.8-11c0.3-0.6,0.1-1.3-0.4-1.7L11.4,1C10.9,0.6,10.1,0.7,9.6,1.2z"/>
	</g>
</g>
</svg>
