<svg xmlns="http://www.w3.org/2000/svg" width="20.679" height="23.002" viewBox="0 0 20.679 23.002">
  <g id="Group_16496" data-name="Group 16496" transform="translate(600.397 -750.15)">
    <path id="Path_47417" data-name="Path 47417" d="M-580.691,750.65a.73.73,0,0,1,.473.779c-.011,1.153-.007,2.305,0,3.458a.883.883,0,0,1-.243.64q-3.254,3.543-6.5,7.092a.515.515,0,0,0-.151.38c.005,1.625,0,3.251.007,4.876a.864.864,0,0,1-.331.724c-1.493,1.26-2.978,2.532-4.468,3.8a1.182,1.182,0,0,1-.339.218.557.557,0,0,1-.735-.424,1.825,1.825,0,0,1-.021-.342q0-4.414,0-8.828a.566.566,0,0,0-.165-.418q-3.243-3.524-6.481-7.054a.908.908,0,0,1-.25-.659c.005-1.153.009-2.306,0-3.458a.739.739,0,0,1,.473-.78Zm-17.253,5.018.174.192q2.839,3.094,5.681,6.186a.954.954,0,0,1,.271.693q-.01,3.877,0,7.755v.28c.1-.082.16-.13.219-.18q1.575-1.347,3.153-2.691a.4.4,0,0,0,.161-.344c-.006-1.6,0-3.194-.008-4.79a1.02,1.02,0,0,1,.3-.748q2.521-2.73,5.029-5.472c.26-.283.518-.568.8-.88Zm16.528-3.83H-598.7v2.622h17.281Z" transform="translate(0)" fill="#0f2a4a" stroke="rgba(0,0,0,0)" stroke-width="1"/>
  </g>
</svg>
