<svg xmlns="http://www.w3.org/2000/svg" width="14.957" height="21.471" viewBox="0 0 14.957 21.471">
  <g id="Group_16763" data-name="Group 16763" transform="translate(-1489.477 -1004.428)">
    <path id="Path_47456" data-name="Path 47456" d="M1496.524,1025.9c-.214-.028-.427-.052-.64-.086a7.505,7.505,0,0,1-6.183-9.18,8.234,8.234,0,0,1,.557-1.553,36.553,36.553,0,0,0,2.1-4.88l.975.235c-.035.275-.063.55-.106.822a5.362,5.362,0,0,0,.4,3.152c.165.36.388.695.585,1.041l.077-.031c0-.479-.023-.959,0-1.436a11.988,11.988,0,0,1,3.656-8.194,9.522,9.522,0,0,1,.977-.787,1.991,1.991,0,0,1,1-.385c.458-.048.912-.121,1.417-.189-.159.18-.293.327-.421.479a11.161,11.161,0,0,0-1.035,1.26,3.183,3.183,0,0,0-.06,3.2,11.367,11.367,0,0,0,1.55,2.128,27.176,27.176,0,0,1,1.727,2.262,7.984,7.984,0,0,1,1.174,5.939,7.293,7.293,0,0,1-5.122,5.852,11.4,11.4,0,0,1-1.639.317c-.054.01-.108.022-.162.033Zm-4.365-11.9c-.249.509-.468.953-.685,1.4a6.483,6.483,0,0,0-.7,3.773,6.123,6.123,0,0,0,2.276,4.086,5.97,5.97,0,0,0,4.906,1.3,6.032,6.032,0,0,0,4.209-2.771,6.516,6.516,0,0,0,.874-4.885,7.791,7.791,0,0,0-1.72-3.54c-.661-.822-1.36-1.614-2-2.451a5,5,0,0,1-1.117-3.428.658.658,0,0,0-.017-.122,10.516,10.516,0,0,0-1.785,2.84,12.166,12.166,0,0,0-.732,6.536c.053.357.1.714.153,1.068A5.034,5.034,0,0,1,1492.159,1014Z" fill="#fff"/>
  </g>
</svg>
