<svg xmlns="http://www.w3.org/2000/svg" width="34.665" height="39.58" viewBox="0 0 34.665 39.58">
  <g id="gift-box-with-a-ribbon" transform="translate(-1.744)">
    <g id="c34_present" transform="translate(1.744)">
      <path id="Path_48945" data-name="Path 48945" d="M12.289,23.429l-1.541-2.5-3.255.585,4.28-7.591H3.427V33.886H17.649V13.922Z" transform="translate(-1.056 5.693)" fill="#fff"/>
      <path id="Path_48946" data-name="Path 48946" d="M36.385,10.088H26.941a11.59,11.59,0,0,0,1.482-.9A5.384,5.384,0,0,0,30.992,4.95a5.716,5.716,0,0,0-1.441-3.76A4.854,4.854,0,0,0,26.351,0a6.333,6.333,0,0,0-3.525,1.134c-1.548,1.037-2.76,3.283-3.624,5l-.13.252a22.5,22.5,0,0,0-1.1-2.587,10.228,10.228,0,0,0-2.647-2.661A6.311,6.311,0,0,0,11.8,0,4.92,4.92,0,0,0,8.453,1.377a6.323,6.323,0,0,0-1.5,4.006A4.3,4.3,0,0,0,7.642,7.7a6.982,6.982,0,0,0,2.8,2.385H1.744l.02,7.939H18.09V10.088H20.08v7.939H36.409ZM11,7.605A4.053,4.053,0,0,1,9.707,6.4a2.93,2.93,0,0,1,.424-3.252,2.51,2.51,0,0,1,1.654-.713H11.8a3.965,3.965,0,0,1,2.168.726c1.078.712,2.094,2.646,2.8,4.063a10.836,10.836,0,0,1,.841,2.212A15.764,15.764,0,0,1,11,7.605ZM22.179,5.879a11.856,11.856,0,0,1,2-2.716,3.943,3.943,0,0,1,2.168-.726h.007a2.438,2.438,0,0,1,1.582.588,2.148,2.148,0,0,1,.61,1.468,3.619,3.619,0,0,1-1.555,2.716,16.762,16.762,0,0,1-6.5,2.4A11.159,11.159,0,0,1,22.179,5.879Z" transform="translate(-1.744 0)" fill="#fff"/>
      <path id="Path_48947" data-name="Path 48947" d="M24.716,21.481l-3.253-.552-1.536,2.53L14.637,14.05V33.886h14.15V13.922H20.44Z" transform="translate(3.528 5.693)" fill="#fff"/>
      <path id="Path_48948" data-name="Path 48948" d="M14.637,13.922" transform="translate(3.528 5.693)" fill="#fff"/>
    </g>
  </g>
</svg>
