<svg xmlns="http://www.w3.org/2000/svg" width="42" height="45.647" viewBox="0 0 42 45.647">
  <g id="Group_38" data-name="Group 38" transform="translate(0 0)">
    <path id="Path_44843" data-name="Path 44843" d="M739.18,198.809a11.071,11.071,0,0,1-1.851-.822,3.625,3.625,0,0,1-1.624-3.114q-.031-5.859,0-11.718a3.98,3.98,0,0,1,3.955-3.954c2.2-.023,4.405-.007,6.608-.007q13.619,0,27.237,0a4,4,0,0,1,4.141,3.472,4.763,4.763,0,0,1,.042.755q0,5.569,0,11.139a4,4,0,0,1-3.366,4.188.543.543,0,0,0-.118.06Zm29.1-12.928c.785,0,1.514,0,2.243,0a1.345,1.345,0,1,0,0-2.673c-1.117,0-2.233,0-3.35,0-1.1,0-1.6.5-1.6,1.612q0,3.455,0,6.909c0,.579-.016,1.16.008,1.738a1.3,1.3,0,0,0,1.3,1.323c1.28.02,2.561.016,3.842,0a1.332,1.332,0,0,0-.036-2.663c-.8-.019-1.595,0-2.389,0v-1.784h1.065c.342,0,.685.007,1.027,0a1.335,1.335,0,1,0-.016-2.67c-.693-.013-1.386,0-2.093,0Zm-9.4,3.81c-.094-.241-.163-.4-.22-.567-.575-1.652-1.14-3.307-1.723-4.956a1.339,1.339,0,1,0-2.53.871q1.5,4.351,3.02,8.695a1.509,1.509,0,0,0,.972.974,1.559,1.559,0,0,0,2.025-1.158q1.394-4.175,2.779-8.354a2.412,2.412,0,0,0,.11-.429,1.309,1.309,0,0,0-.972-1.493,1.325,1.325,0,0,0-1.588.816c-.12.3-.211.617-.314.926Zm-14.854,2.428v-.588c0-2.316.006-4.632-.005-6.949a1.333,1.333,0,1,0-2.665-.036q-.028,4.432,0,8.864a1.323,1.323,0,0,0,1.428,1.38q1.473.016,2.946,0a1.338,1.338,0,1,0,.006-2.671C745.192,192.115,744.643,192.119,744.031,192.119Zm8.041-3.127h0c0-1.441.006-2.882,0-4.324a1.341,1.341,0,1,0-2.674-.026c-.009,2.912-.011,5.824.009,8.737a1.759,1.759,0,0,0,.276.871,1.248,1.248,0,0,0,1.416.488,1.28,1.28,0,0,0,.969-1.288C752.081,191.964,752.072,190.478,752.072,188.992Z" transform="translate(-735.689 -153.162)" fill="#fff"/>
    <path id="Path_44844" data-name="Path 44844" d="M758.654,125.527a6.356,6.356,0,0,0,9.479.116,5.4,5.4,0,0,0,8.427.089,2.986,2.986,0,0,1,1.143,1.989,5.192,5.192,0,0,1,.041.711q0,3.3,0,6.594a3.139,3.139,0,0,1-3.4,3.386q-6.876,0-13.753,0a3.142,3.142,0,0,1-3.4-3.385c-.005-2.243,0-4.485,0-6.728A3.146,3.146,0,0,1,758.654,125.527Z" transform="translate(-749.817 -117.907)" fill="#fff"/>
    <path id="Path_44845" data-name="Path 44845" d="M772.164,106.869a3.567,3.567,0,1,1-3.587-3.555A3.57,3.57,0,0,1,772.164,106.869Z" transform="translate(-754.965 -103.313)" fill="#fff"/>
    <path id="Path_44846" data-name="Path 44846" d="M828.938,134.241c0,1.114.007,2.228,0,3.342a1.356,1.356,0,0,1-2.114,1.314c-.533-.262-1.074-.512-1.589-.806a.65.65,0,0,1-.3-.454q-.029-3.409,0-6.818a.645.645,0,0,1,.3-.458c.542-.307,1.106-.577,1.668-.848a1.337,1.337,0,0,1,2.04,1.251C828.952,131.924,828.937,133.083,828.938,134.241Z" transform="translate(-794.309 -120.406)" fill="#fff"/>
    <path id="Path_44847" data-name="Path 44847" d="M796.369,113.858a2.674,2.674,0,1,1,2.66-2.676A2.678,2.678,0,0,1,796.369,113.858Z" transform="translate(-773.789 -106.728)" fill="#fff"/>
  </g>
</svg>
