<svg id="Group_16881" data-name="Group 16881" xmlns="http://www.w3.org/2000/svg" width="21.597" height="28.12" viewBox="0 0 21.597 28.12">
  <path id="Path_47891" data-name="Path 47891" d="M-155.947,1143.661a1.443,1.443,0,0,1-.737-.656c-.483-.775-.983-1.539-1.487-2.324-.815.272-1.619.54-2.424.807a5.249,5.249,0,0,1-.576.176.874.874,0,0,1-1.04-1.067c.18-.65.427-1.281.651-1.919.4-1.155.816-2.308,1.216-3.465.058-.168.118-.252.321-.236,1.469.11,2.939.2,4.407.316a.765.765,0,0,1,.406.18c.712.6,1.41,1.224,2.119,1.83a.27.27,0,0,1,.1.347q-.938,2.633-1.859,5.271a1.183,1.183,0,0,1-.708.74Z" transform="translate(162.242 -1115.541)" fill="#0f2a4a"/>
  <path id="Path_47892" data-name="Path 47892" d="M-110.641,1143.663a1.281,1.281,0,0,1-.752-.871c-.583-1.692-1.181-3.379-1.783-5.065a.349.349,0,0,1,.11-.463c.714-.6,1.409-1.223,2.118-1.83a.586.586,0,0,1,.312-.136c1.5-.111,2.992-.21,4.488-.319a.229.229,0,0,1,.276.184q.91,2.613,1.832,5.222a.926.926,0,0,1-.17,1.02.919.919,0,0,1-1.037.208c-.917-.308-1.835-.614-2.781-.93-.05.075-.1.147-.148.221-.454.708-.915,1.412-1.358,2.126a1.388,1.388,0,0,1-.723.632Z" transform="translate(125.559 -1115.543)" fill="#0f2a4a"/>
  <path id="Path_47893" data-name="Path 47893" d="M-139.47,1067.991a1.913,1.913,0,0,1-.524,1.263c-.525.6-1.052,1.195-1.562,1.806a.935.935,0,0,0-.2.483c-.073.811-.121,1.624-.176,2.436a1.813,1.813,0,0,1-1.77,1.752c-.84.052-1.68.107-2.519.175a.638.638,0,0,0-.332.157c-.613.522-1.218,1.053-1.825,1.582a1.817,1.817,0,0,1-2.594,0c-.6-.523-1.194-1.053-1.8-1.564a.879.879,0,0,0-.461-.182c-.883-.08-1.773-.1-2.652-.216a1.741,1.741,0,0,1-1.536-1.7c-.056-.84-.108-1.68-.176-2.519a.683.683,0,0,0-.157-.36c-.521-.614-1.054-1.218-1.583-1.824a1.817,1.817,0,0,1,0-2.594c.516-.594,1.041-1.181,1.543-1.786a.984.984,0,0,0,.2-.507c.085-.892.109-1.791.223-2.678a1.708,1.708,0,0,1,1.61-1.471c.812-.065,1.624-.122,2.437-.166a.929.929,0,0,0,.614-.244c.578-.52,1.169-1.026,1.756-1.536a1.809,1.809,0,0,1,2.552,0c.61.525,1.211,1.062,1.829,1.577a.882.882,0,0,0,.46.189c.811.072,1.624.118,2.436.175a1.8,1.8,0,0,1,1.749,1.767c.055.812.1,1.625.175,2.436a.832.832,0,0,0,.183.435c.529.631,1.074,1.249,1.615,1.869A1.859,1.859,0,0,1-139.47,1067.991Zm-13,3.79c-.016.387.168.525.534.371.513-.216,1.017-.455,1.524-.687a1.659,1.659,0,0,1,1.457,0c.5.23.994.462,1.5.677.4.169.6.01.551-.424-.04-.382-.061-.768-.136-1.144a2.14,2.14,0,0,1,.692-2.18,9.436,9.436,0,0,0,.78-.848c.336-.381.257-.6-.245-.709-.268-.057-.537-.113-.806-.166-1.509-.3-1.509-.3-2.274-1.64-.154-.27-.3-.545-.465-.808-.22-.35-.433-.345-.662.005-.04.061-.074.127-.11.19l-.719,1.263a1.617,1.617,0,0,1-1.133.83c-.537.108-1.075.215-1.611.333-.466.1-.54.326-.223.686q.517.586,1.054,1.156a1.731,1.731,0,0,1,.47,1.511C-152.36,1070.725-152.406,1071.254-152.465,1071.781Z" transform="translate(160.483 -1057.77)" fill="#0f2a4a"/>
</svg>
