<?xml version="1.0" encoding="utf-8"?>
<!-- Generator: Adobe Illustrator 25.2.1, SVG Export Plug-In . SVG Version: 6.00 Build 0)  -->
<svg version="1.1" id="Layer_1" xmlns="http://www.w3.org/2000/svg" xmlns:xlink="http://www.w3.org/1999/xlink" x="0px" y="0px"
	 viewBox="0 0 28 46" style="enable-background:new 0 0 28 46;" xml:space="preserve">
<style type="text/css">
	.st0{fill:none;}
	.st1{fill:#FFFFFF;}
</style>
<g id="Group_15" transform="translate(-946 -878)">
	<g id="Rectangle_35" transform="translate(946 878)">
		<g>
			<path class="st0" d="M14,0L14,0c7.7,0,14,6.3,14,14v18c0,7.7-6.3,14-14,14l0,0C6.3,46,0,39.7,0,32V14C0,6.3,6.3,0,14,0z"/>
		</g>
		<g>
			<path class="st1" d="M14,46C6.3,46,0,39.7,0,32V14C0,6.3,6.3,0,14,0s14,6.3,14,14v18C28,39.7,21.7,46,14,46z M14,2
				C7.4,2,2,7.4,2,14v18c0,6.6,5.4,12,12,12c6.6,0,12-5.4,12-12V14C26,7.4,20.6,2,14,2z"/>
		</g>
	</g>
	<g id="Line_2">
		<rect x="959.5" y="889.5" class="st1" width="2" height="12"/>
	</g>
</g>
</svg>
