<svg id="Group_16879" data-name="Group 16879" xmlns="http://www.w3.org/2000/svg" width="22.293" height="28.126" viewBox="0 0 22.293 28.126">
  <path id="Path_44780" data-name="Path 44780" d="M-1523.2,1098.134a6.876,6.876,0,0,1,1,.35,3.047,3.047,0,0,1,1.706,2.631c.005.08,0,.16,0,.27a9.923,9.923,0,0,0-3.254-.563,9.96,9.96,0,0,0-3.251.561,3.047,3.047,0,0,1,.968-2.382,3.026,3.026,0,0,1,1.614-.817.569.569,0,0,0,.121-.05Z" transform="translate(1534.896 -1098.134)" fill="#0f2a4a"/>
  <path id="Path_44781" data-name="Path 44781" d="M-1623.45,1176.962q-5.039,0-10.079,0a1.73,1.73,0,0,1-.461-.048.771.771,0,0,1-.578-.633.7.7,0,0,1,.275-.758,4.666,4.666,0,0,0,1.573-2.1,13.582,13.582,0,0,0,1.085-4.317c.126-1.31.2-2.628.224-3.944a8,8,0,0,1,7.15-7.754,7.939,7.939,0,0,1,8.708,6.851c.129.966.086,1.955.137,2.932a20.045,20.045,0,0,0,.881,5.26,7.25,7.25,0,0,0,1.066,2.183,5.738,5.738,0,0,0,.826.829.836.836,0,0,1,.34.79.768.768,0,0,1-.58.661,1.672,1.672,0,0,1-.461.048Q-1618.4,1176.964-1623.45,1176.962Z" transform="translate(1634.586 -1153.02)" fill="#0f2a4a"/>
  <path id="Path_44782" data-name="Path 44782" d="M-1534.937,1447.062h7.671c-.323,1.316-2.179,2.524-3.85,2.518C-1532.773,1449.576-1534.635,1448.354-1534.937,1447.062Z" transform="translate(1542.25 -1421.454)" fill="#0f2a4a"/>
</svg>
