<svg xmlns="http://www.w3.org/2000/svg" width="31.877" height="36.984" viewBox="0 0 31.877 36.984">
  <g id="Group_17978" data-name="Group 17978" transform="translate(-10702.307 16410.148)">
    <path id="Path_48940" data-name="Path 48940" d="M276.094,184.009a2.494,2.494,0,0,0,3.267-1.336l12.529-29.853a2.5,2.5,0,0,0-4.6-1.932l-12.529,29.853A2.5,2.5,0,0,0,276.094,184.009Z" transform="translate(10435.123 -16558.758)" fill="#fff"/>
    <path id="Path_48942" data-name="Path 48942" d="M237.686,161.437c4.123,0,7.478-3.717,7.478-8.285s-3.355-8.285-7.478-8.285-7.478,3.717-7.478,8.285S233.563,161.437,237.686,161.437Zm0-11.579c1.348,0,2.486,1.508,2.486,3.294s-1.139,3.294-2.486,3.294-2.486-1.508-2.486-3.294S236.338,149.858,237.686,149.858Z" transform="translate(10472.099 -16555.014)" fill="#fff"/>
    <path id="Path_48943" data-name="Path 48943" d="M331.9,275.826c0,4.569,3.355,8.285,7.478,8.285s7.478-3.717,7.478-8.285-3.355-8.285-7.478-8.285S331.9,271.258,331.9,275.826Zm9.965,0c0,1.785-1.139,3.294-2.486,3.294s-2.486-1.508-2.486-3.294,1.139-3.294,2.486-3.294S341.868,274.041,341.868,275.826Z" transform="translate(10387.324 -16657.275)" fill="#fff"/>
  </g>
</svg>
