<svg xmlns="http://www.w3.org/2000/svg" width="51.065" height="42.79" viewBox="0 0 51.065 42.79">
  <g id="Group_56" data-name="Group 56" transform="translate(-1010.648 -856.933)" opacity="0.3">
    <path id="Path_44860" data-name="Path 44860" d="M1074.5,888.6c-.206.9-.346,1.819-.627,2.693a11.545,11.545,0,0,1-10.968,7.928,11.859,11.859,0,0,1-11.284-7.454,22.088,22.088,0,0,1-1.617-10.034,32.864,32.864,0,0,1,2.977-12.4,24.025,24.025,0,0,1,6.711-9,12.123,12.123,0,0,1,7.261-2.891,7.769,7.769,0,0,1,1.508.1,1.266,1.266,0,0,1,1.018,1.575c-.384,1.463-.806,2.916-1.222,4.369a1.215,1.215,0,0,1-.979.923c-2.993.527-4.906,2.475-6.431,4.905a28.46,28.46,0,0,0-3.1,7.428c.543-.169,1.02-.334,1.508-.466a12.093,12.093,0,0,1,14.182,6.541,24.246,24.246,0,0,1,.973,3.408c.039.139.06.283.09.425Z" transform="translate(-13.29)" fill="#757575" stroke="rgba(0,0,0,0)" stroke-width="1"/>
    <path id="Path_44861" data-name="Path 44861" d="M1018.982,876.771a12.071,12.071,0,0,1,4.261-.889,11.857,11.857,0,0,1,12.257,9.85,11.569,11.569,0,0,1-11.373,13.5,11.749,11.749,0,0,1-11.294-7.355,22.029,22.029,0,0,1-1.651-10.222,32.986,32.986,0,0,1,2.3-10.736,26.109,26.109,0,0,1,6.237-9.58,11.626,11.626,0,0,1,9.867-3.782,1.244,1.244,0,0,1,1.058,1.577c-.385,1.463-.8,2.916-1.218,4.371a1.217,1.217,0,0,1-.981.922c-3.089.552-5.018,2.593-6.556,5.116a28.425,28.425,0,0,0-2.91,7.009A1.068,1.068,0,0,0,1018.982,876.771Z" transform="translate(0 -0.024)" fill="#757575" stroke="rgba(0,0,0,0)" stroke-width="1"/>
  </g>
</svg>
