<svg xmlns="http://www.w3.org/2000/svg" width="44.666" height="50" viewBox="0 0 44.666 50">
  <g id="Group_16808" data-name="Group 16808" transform="translate(266.621 -489.021)">
    <path id="Path_47461" data-name="Path 47461" d="M-243.894,539.021h-.782c-.7-.244-1.413-.47-2.108-.735a32.466,32.466,0,0,1-12.308-8.235,23.284,23.284,0,0,1-5.34-8.54,43.508,43.508,0,0,1-2.024-10.86,78.983,78.983,0,0,1,.394-14.338,1.77,1.77,0,0,1,1.534-1.766q9.728-2.7,19.454-5.413a2.817,2.817,0,0,1,1.579,0q9.724,2.717,19.454,5.413a1.793,1.793,0,0,1,1.541,1.815,83.438,83.438,0,0,1,.521,11.361,51.648,51.648,0,0,1-1.3,10.789,22.8,22.8,0,0,1-2.9,7.311,31.743,31.743,0,0,1-14.481,12C-241.714,538.275-242.814,538.625-243.894,539.021Zm-2.312-24.475a5.6,5.6,0,0,0-.4-.522q-2.535-2.545-5.079-5.08a1.658,1.658,0,0,0-2.609-.007c-.488.479-.975.96-1.449,1.453a1.627,1.627,0,0,0,.019,2.5q4.138,4.154,8.292,8.292a1.611,1.611,0,0,0,2.464.013q6.8-6.783,13.577-13.581a1.622,1.622,0,0,0,.014-2.432c-.314-.331-.661-.631-.962-.972-1.34-1.513-2.219-1.476-3.663.007-3.217,3.3-6.507,6.53-9.765,9.791C-245.89,514.135-245.993,514.284-246.206,514.546Z" transform="translate(0)" fill="#ec2040"/>
  </g>
</svg>
