<svg xmlns="http://www.w3.org/2000/svg" width="17.531" height="22.997" viewBox="0 0 17.531 22.997">
  <g id="Group_16675" data-name="Group 16675" transform="translate(1075.705 -1162.074)">
    <path id="Path_47447" data-name="Path 47447" d="M-1024.208,1162.074c.473.1.958.169,1.417.317a6.03,6.03,0,0,1,4.148,5.636c.01.838,0,1.675,0,2.547a6.6,6.6,0,0,0-2.693-.363v-.251c0-.606,0-1.212,0-1.818a3.372,3.372,0,0,0-3.073-3.363,3.372,3.372,0,0,0-3.6,2.712,3.88,3.88,0,0,0-.062.713c-.008.657,0,1.314,0,2a7.1,7.1,0,0,0-2.694.3c0-.122,0-.2,0-.281.011-.9-.035-1.815.046-2.714a5.988,5.988,0,0,1,4.751-5.3c.255-.054.514-.09.771-.135Z" transform="translate(-42.247)" fill="#fff"/>
    <path id="Path_47448" data-name="Path 47448" d="M-1067.089,1320.275q2.043,0,4.086,0a4.68,4.68,0,0,1,4.737,3.924,6.622,6.622,0,0,1-.293,3.278,8.558,8.558,0,0,1-7.1,6.2,8.46,8.46,0,0,1-9.15-4.96,9.529,9.529,0,0,1-.9-4.084,4.4,4.4,0,0,1,4.328-4.355c1.429-.015,2.859,0,4.288,0Zm-.534,8.442c0,.561,0,1.122,0,1.683a.656.656,0,0,0,.409.641.671.671,0,0,0,.936-.657q.006-1.627,0-3.255a.306.306,0,0,1,.2-.334,1.989,1.989,0,0,0,1.1-2.257,2.032,2.032,0,0,0-1.922-1.567,2.033,2.033,0,0,0-2.016,1.562,2,2,0,0,0,1.13,2.28.241.241,0,0,1,.169.265C-1067.627,1327.625-1067.623,1328.171-1067.622,1328.717Z" transform="translate(0 -148.726)" fill="#fff"/>
    <path id="Path_47449" data-name="Path 47449" d="M-940.037,1389.192a.68.68,0,0,1-.668-.672.681.681,0,0,1,.689-.673.681.681,0,0,1,.657.683A.68.68,0,0,1-940.037,1389.192Z" transform="translate(-126.917 -212.255)" fill="#fff"/>
  </g>
</svg>
