<?xml version="1.0" encoding="utf-8"?>
<!-- Generator: Adobe Illustrator 24.3.0, SVG Export Plug-In . SVG Version: 6.00 Build 0)  -->
<svg version="1.1" id="Layer_1" xmlns="http://www.w3.org/2000/svg" xmlns:xlink="http://www.w3.org/1999/xlink" x="0px" y="0px"
	 viewBox="0 0 17.1 16" style="enable-background:new 0 0 17.1 16;" xml:space="preserve">
<style type="text/css">
	.st0{fill:#FFFFFF;}
	.st1{fill:#00BEB1;}
	.st2{fill:#2AB790;}
</style>
<g id="Ellipse_1378" transform="translate(1445 1025)">
	<g>
		<circle class="st0" cx="-1437" cy="-1017" r="8"/>
	</g>
	<g>
		<path class="st1" d="M-1437-1009c-4.4,0-8-3.6-8-8s3.6-8,8-8s8,3.6,8,8S-1432.6-1009-1437-1009z M-1437-1024c-3.9,0-7,3.1-7,7
			c0,3.9,3.1,7,7,7c3.9,0,7-3.1,7-7C-1430-1020.9-1433.1-1024-1437-1024z"/>
	</g>
</g>
<g id="Path_47401">
	<polygon class="st2" points="8.2,12 3.3,7 4.7,5.6 8.2,9.2 15.7,1.7 17.1,3.1 	"/>
</g>
</svg>
