<svg xmlns="http://www.w3.org/2000/svg" width="22.789" height="22" viewBox="0 0 22.789 22">
  <g id="Group_17357" data-name="Group 17357" transform="translate(-1444.693 -1024.629)">
    <path id="Subtraction_5" data-name="Subtraction 5" d="M-1100.488,24617.629a11.014,11.014,0,0,1-11-11,11.01,11.01,0,0,1,11-11,10.971,10.971,0,0,1,7.409,2.865l-.674.748a9.973,9.973,0,0,0-6.736-2.613,10.008,10.008,0,0,0-10,10,10.01,10.01,0,0,0,10,10,10.013,10.013,0,0,0,10-10,10.047,10.047,0,0,0-.172-1.85l.887-.652a11.054,11.054,0,0,1,.286,2.5A11.017,11.017,0,0,1-1100.488,24617.629Z" transform="translate(2556.178 -23571)" fill="#fff"/>
    <path id="Path_47401" data-name="Path 47401" d="M-8717.463-13363.9l-6.336-6.338,1.414-1.414,4.922,4.924,10.125-10.125,1.414,1.414Z" transform="translate(10173.405 14404.361)" fill="#fff"/>
  </g>
</svg>
