<svg xmlns="http://www.w3.org/2000/svg" width="97" height="25.678" viewBox="0 0 97 25.678">
  <g id="Path_48962" data-name="Path 48962" fill="#fff">
    <path d="M 11.43360614776611 24.91953468322754 L 9.468899726867676 22.67101669311523 L 9.319475173950195 22.50000381469727 L 9.092387199401855 22.50000381469727 L 2 22.50000381469727 C 1.172899961471558 22.50000381469727 0.5 21.82710456848145 0.5 21.00000381469727 L 0.5 2.000004768371582 C 0.5 1.17290472984314 1.172899961471558 0.5000047087669373 2 0.5000047087669373 L 95 0.5000047087669373 C 95.82710266113281 0.5000047087669373 96.5 1.17290472984314 96.5 2.000004768371582 L 96.5 21.00000381469727 C 96.5 21.82710456848145 95.82710266113281 22.50000381469727 95 22.50000381469727 L 13.79041290283203 22.50000381469727 L 13.5644998550415 22.50000381469727 L 13.41518783569336 22.66954231262207 L 11.43360614776611 24.91953468322754 Z" stroke="none"/>
    <path d="M 2 1 C 1.448600769042969 1 1 1.448600769042969 1 2 L 1 21 C 1 21.55140113830566 1.448600769042969 22 2 22 L 9.54656982421875 22 L 11.43509674072266 24.16133499145508 L 13.33856964111328 22 L 95 22 C 95.55139923095703 22 96 21.55140113830566 96 21 L 96 2 C 96 1.448600769042969 95.55139923095703 1 95 1 L 2 1 M 2 0 L 95 0 C 96.10457611083984 0 97 0.8954277038574219 97 2 L 97 21 C 97 22.10457420349121 96.10457611083984 23 95 23 L 13.79039764404297 23 L 11.43213653564453 25.677734375 L 9.092384338378906 23 L 2 23 C 0.8954238891601562 23 0 22.10457420349121 0 21 L 0 2 C 0 0.8954277038574219 0.8954238891601562 0 2 0 Z" stroke="none" fill="#d1d1d1"/>
  </g>
</svg>
