<svg xmlns="http://www.w3.org/2000/svg" xmlns:xlink="http://www.w3.org/1999/xlink" viewBox="0 0 1952.36 314.68"><defs><style>.cls-1,.cls-5{fill:none;}.cls-2{fill:#f7f7f7;}.cls-3{fill:#fff;}.cls-4{clip-path:url(#clip-path);}.cls-5{stroke:#d1d1d1;stroke-width:2px;}</style><clipPath id="clip-path" transform="translate(-0.19)"><rect class="cls-1" x="-6.07" y="147.14" width="1958.27" height="33.94" transform="translate(-13.06 127.55) rotate(-7.45)"/></clipPath></defs><g id="Layer_2" data-name="Layer 2"><g id="Layer_1-2" data-name="Layer 1"><g id="Group_18093" data-name="Group 18093"><path id="Path_48897" data-name="Path 48897" class="cls-2" d="M7.41,250.78,1944.89,0V303.23H7.41Z" transform="translate(-0.19)"/><path id="Path_48896" data-name="Path 48896" class="cls-3" d="M7.41,262.23,1944.89,11.45V314.68H7.41Z" transform="translate(-0.19)"/><g class="cls-4"><g id="Repeat_Grid_13" data-name="Repeat Grid 13"><path id="Path_48899" data-name="Path 48899" class="cls-5" d="M.8,274.85l18.22,14L5,307.09" transform="translate(-0.19)"/><path id="Path_48899-2" data-name="Path 48899-2" class="cls-5" d="M12.8,273.28,31,287.3,17,305.52" transform="translate(-0.19)"/><path id="Path_48899-3" data-name="Path 48899-3" class="cls-5" d="M24.8,271.71l18.22,14L29,304" transform="translate(-0.19)"/><path id="Path_48899-4" data-name="Path 48899-4" class="cls-5" d="M36.8,270.14l18.22,14L41,302.38" transform="translate(-0.19)"/><path id="Path_48899-5" data-name="Path 48899-5" class="cls-5" d="M48.8,268.57l18.22,14L53,300.81" transform="translate(-0.19)"/><path id="Path_48899-6" data-name="Path 48899-6" class="cls-5" d="M60.8,267,79,281,65,299.24" transform="translate(-0.19)"/><path id="Path_48899-7" data-name="Path 48899-7" class="cls-5" d="M72.81,265.43l18.22,14L77,297.67" transform="translate(-0.19)"/><path id="Path_48899-8" data-name="Path 48899-8" class="cls-5" d="M84.81,263.86l18.22,14L89,296.1" transform="translate(-0.19)"/><path id="Path_48899-9" data-name="Path 48899-9" class="cls-5" d="M96.81,262.29l18.22,14-14,18.22" transform="translate(-0.19)"/><path id="Path_48899-10" data-name="Path 48899-10" class="cls-5" d="M108.81,260.73l18.22,14L113,293" transform="translate(-0.19)"/><path id="Path_48899-11" data-name="Path 48899-11" class="cls-5" d="M120.81,259.16l18.22,14-14,18.21" transform="translate(-0.19)"/><path id="Path_48899-12" data-name="Path 48899-12" class="cls-5" d="M132.81,257.59l18.22,14-14,18.21" transform="translate(-0.19)"/><path id="Path_48899-13" data-name="Path 48899-13" class="cls-5" d="M144.81,256,163,270l-14,18.21" transform="translate(-0.19)"/><path id="Path_48899-14" data-name="Path 48899-14" class="cls-5" d="M156.81,254.45l18.22,14-14,18.21" transform="translate(-0.19)"/><path id="Path_48899-15" data-name="Path 48899-15" class="cls-5" d="M168.81,252.88l18.22,14-14,18.22" transform="translate(-0.19)"/><path id="Path_48899-16" data-name="Path 48899-16" class="cls-5" d="M180.81,251.31l18.22,14-14,18.22" transform="translate(-0.19)"/><path id="Path_48899-17" data-name="Path 48899-17" class="cls-5" d="M192.81,249.74l18.22,14L197,282" transform="translate(-0.19)"/><path id="Path_48899-18" data-name="Path 48899-18" class="cls-5" d="M204.81,248.17l18.23,14-14,18.22" transform="translate(-0.19)"/><path id="Path_48899-19" data-name="Path 48899-19" class="cls-5" d="M216.82,246.6l18.22,14-14,18.22" transform="translate(-0.19)"/><path id="Path_48899-20" data-name="Path 48899-20" class="cls-5" d="M228.82,245l18.22,14-14,18.22" transform="translate(-0.19)"/><path id="Path_48899-21" data-name="Path 48899-21" class="cls-5" d="M240.82,243.46l18.22,14L245,275.7" transform="translate(-0.19)"/><path id="Path_48899-22" data-name="Path 48899-22" class="cls-5" d="M252.82,241.89l18.22,14-14,18.22" transform="translate(-0.19)"/><path id="Path_48899-23" data-name="Path 48899-23" class="cls-5" d="M264.82,240.32l18.22,14-14,18.22" transform="translate(-0.19)"/><path id="Path_48899-24" data-name="Path 48899-24" class="cls-5" d="M276.82,238.76l18.22,14L281,271" transform="translate(-0.19)"/><path id="Path_48899-25" data-name="Path 48899-25" class="cls-5" d="M288.82,237.19l18.22,14-14,18.21" transform="translate(-0.19)"/><path id="Path_48899-26" data-name="Path 48899-26" class="cls-5" d="M300.82,235.62l18.22,14-14,18.21" transform="translate(-0.19)"/><path id="Path_48899-27" data-name="Path 48899-27" class="cls-5" d="M312.82,234.05l18.22,14-14,18.21" transform="translate(-0.19)"/><path id="Path_48899-28" data-name="Path 48899-28" class="cls-5" d="M324.82,232.48l18.22,14-14,18.21" transform="translate(-0.19)"/><path id="Path_48899-29" data-name="Path 48899-29" class="cls-5" d="M336.82,230.91l18.22,14-14,18.22" transform="translate(-0.19)"/><path id="Path_48899-30" data-name="Path 48899-30" class="cls-5" d="M348.82,229.34l18.22,14-14,18.22" transform="translate(-0.19)"/><path id="Path_48899-31" data-name="Path 48899-31" class="cls-5" d="M360.82,227.77l18.23,14L365,260" transform="translate(-0.19)"/><path id="Path_48899-32" data-name="Path 48899-32" class="cls-5" d="M372.83,226.2l18.22,14-14,18.22" transform="translate(-0.19)"/><path id="Path_48899-33" data-name="Path 48899-33" class="cls-5" d="M384.83,224.63l18.22,14-14,18.22" transform="translate(-0.19)"/><path id="Path_48899-34" data-name="Path 48899-34" class="cls-5" d="M396.83,223.06l18.22,14L401,255.3" transform="translate(-0.19)"/><path id="Path_48899-35" data-name="Path 48899-35" class="cls-5" d="M408.83,221.49l18.22,14-14,18.22" transform="translate(-0.19)"/><path id="Path_48899-36" data-name="Path 48899-36" class="cls-5" d="M420.83,219.92l18.22,14-14,18.22" transform="translate(-0.19)"/><path id="Path_48899-37" data-name="Path 48899-37" class="cls-5" d="M432.83,218.35l18.22,14-14,18.22" transform="translate(-0.19)"/><path id="Path_48899-38" data-name="Path 48899-38" class="cls-5" d="M444.83,216.79l18.22,14-14,18.22" transform="translate(-0.19)"/><path id="Path_48899-39" data-name="Path 48899-39" class="cls-5" d="M456.83,215.22l18.22,14-14,18.21" transform="translate(-0.19)"/><path id="Path_48899-40" data-name="Path 48899-40" class="cls-5" d="M468.83,213.65l18.22,14-14,18.21" transform="translate(-0.19)"/><path id="Path_48899-41" data-name="Path 48899-41" class="cls-5" d="M480.83,212.08l18.22,14-14,18.21" transform="translate(-0.19)"/><path id="Path_48899-42" data-name="Path 48899-42" class="cls-5" d="M492.83,210.51l18.22,14-14,18.21" transform="translate(-0.19)"/><path id="Path_48899-43" data-name="Path 48899-43" class="cls-5" d="M504.83,208.94l18.23,14-14,18.22" transform="translate(-0.19)"/><path id="Path_48899-44" data-name="Path 48899-44" class="cls-5" d="M516.84,207.37l18.22,14-14,18.22" transform="translate(-0.19)"/><path id="Path_48899-45" data-name="Path 48899-45" class="cls-5" d="M528.84,205.8l18.22,14-14,18.22" transform="translate(-0.19)"/><path id="Path_48899-46" data-name="Path 48899-46" class="cls-5" d="M540.84,204.23l18.22,14-14,18.22" transform="translate(-0.19)"/><path id="Path_48899-47" data-name="Path 48899-47" class="cls-5" d="M552.84,202.66l18.22,14-14,18.22" transform="translate(-0.19)"/><path id="Path_48899-48" data-name="Path 48899-48" class="cls-5" d="M564.84,201.09l18.22,14-14,18.22" transform="translate(-0.19)"/><path id="Path_48899-49" data-name="Path 48899-49" class="cls-5" d="M576.84,199.52l18.22,14-14,18.22" transform="translate(-0.19)"/><path id="Path_48899-50" data-name="Path 48899-50" class="cls-5" d="M588.84,198l18.22,14-14,18.22" transform="translate(-0.19)"/><path id="Path_48899-51" data-name="Path 48899-51" class="cls-5" d="M600.84,196.38l18.22,14-14,18.22" transform="translate(-0.19)"/><path id="Path_48899-52" data-name="Path 48899-52" class="cls-5" d="M612.84,194.82l18.22,14-14,18.22" transform="translate(-0.19)"/><path id="Path_48899-53" data-name="Path 48899-53" class="cls-5" d="M624.84,193.25l18.22,14-14,18.21" transform="translate(-0.19)"/><path id="Path_48899-54" data-name="Path 48899-54" class="cls-5" d="M636.84,191.68l18.22,14-14,18.21" transform="translate(-0.19)"/><path id="Path_48899-55" data-name="Path 48899-55" class="cls-5" d="M648.84,190.11l18.23,14-14,18.21" transform="translate(-0.19)"/><path id="Path_48899-56" data-name="Path 48899-56" class="cls-5" d="M660.85,188.54l18.22,14-14,18.21" transform="translate(-0.19)"/><path id="Path_48899-57" data-name="Path 48899-57" class="cls-5" d="M672.85,187l18.22,14-14,18.22" transform="translate(-0.19)"/><path id="Path_48899-58" data-name="Path 48899-58" class="cls-5" d="M684.85,185.4l18.22,14-14,18.22" transform="translate(-0.19)"/><path id="Path_48899-59" data-name="Path 48899-59" class="cls-5" d="M696.85,183.83l18.22,14-14,18.22" transform="translate(-0.19)"/><path id="Path_48899-60" data-name="Path 48899-60" class="cls-5" d="M708.85,182.26l18.22,14-14,18.22" transform="translate(-0.19)"/><path id="Path_48899-61" data-name="Path 48899-61" class="cls-5" d="M720.85,180.69l18.22,14-14,18.22" transform="translate(-0.19)"/><path id="Path_48899-62" data-name="Path 48899-62" class="cls-5" d="M732.85,179.12l18.22,14-14,18.22" transform="translate(-0.19)"/><path id="Path_48899-63" data-name="Path 48899-63" class="cls-5" d="M744.85,177.55l18.22,14-14,18.22" transform="translate(-0.19)"/><path id="Path_48899-64" data-name="Path 48899-64" class="cls-5" d="M756.85,176l18.22,14-14,18.22" transform="translate(-0.19)"/><path id="Path_48899-65" data-name="Path 48899-65" class="cls-5" d="M768.85,174.41l18.22,14-14,18.22" transform="translate(-0.19)"/><path id="Path_48899-66" data-name="Path 48899-66" class="cls-5" d="M780.85,172.85l18.22,14-14,18.22" transform="translate(-0.19)"/><path id="Path_48899-67" data-name="Path 48899-67" class="cls-5" d="M792.85,171.28l18.23,14-14,18.21" transform="translate(-0.19)"/><path id="Path_48899-68" data-name="Path 48899-68" class="cls-5" d="M804.86,169.71l18.22,14-14,18.21" transform="translate(-0.19)"/><path id="Path_48899-69" data-name="Path 48899-69" class="cls-5" d="M816.86,168.14l18.22,14-14,18.21" transform="translate(-0.19)"/><path id="Path_48899-70" data-name="Path 48899-70" class="cls-5" d="M828.86,166.57l18.22,14-14,18.21" transform="translate(-0.19)"/><path id="Path_48899-71" data-name="Path 48899-71" class="cls-5" d="M840.86,165l18.22,14-14,18.22" transform="translate(-0.19)"/><path id="Path_48899-72" data-name="Path 48899-72" class="cls-5" d="M852.86,163.43l18.22,14-14,18.22" transform="translate(-0.19)"/><path id="Path_48899-73" data-name="Path 48899-73" class="cls-5" d="M864.86,161.86l18.22,14-14,18.22" transform="translate(-0.19)"/><path id="Path_48899-74" data-name="Path 48899-74" class="cls-5" d="M876.86,160.29l18.22,14-14,18.22" transform="translate(-0.19)"/><path id="Path_48899-75" data-name="Path 48899-75" class="cls-5" d="M888.86,158.72l18.22,14-14,18.22" transform="translate(-0.19)"/><path id="Path_48899-76" data-name="Path 48899-76" class="cls-5" d="M900.86,157.15l18.22,14-14,18.22" transform="translate(-0.19)"/><path id="Path_48899-77" data-name="Path 48899-77" class="cls-5" d="M912.86,155.58l18.22,14-14,18.22" transform="translate(-0.19)"/><path id="Path_48899-78" data-name="Path 48899-78" class="cls-5" d="M924.86,154l18.22,14-14,18.22" transform="translate(-0.19)"/><path id="Path_48899-79" data-name="Path 48899-79" class="cls-5" d="M936.86,152.44l18.22,14-14,18.22" transform="translate(-0.19)"/><path id="Path_48899-80" data-name="Path 48899-80" class="cls-5" d="M948.86,150.88l18.23,14-14,18.22" transform="translate(-0.19)"/><path id="Path_48899-81" data-name="Path 48899-81" class="cls-5" d="M960.87,149.31l18.22,14-14,18.21" transform="translate(-0.19)"/><path id="Path_48899-82" data-name="Path 48899-82" class="cls-5" d="M972.87,147.74l18.22,14-14,18.21" transform="translate(-0.19)"/><path id="Path_48899-83" data-name="Path 48899-83" class="cls-5" d="M984.87,146.17l18.22,14-14,18.21" transform="translate(-0.19)"/><path id="Path_48899-84" data-name="Path 48899-84" class="cls-5" d="M996.87,144.6l18.22,14-14,18.21" transform="translate(-0.19)"/><path id="Path_48899-85" data-name="Path 48899-85" class="cls-5" d="M1008.87,143l18.22,14-14,18.22" transform="translate(-0.19)"/><path id="Path_48899-86" data-name="Path 48899-86" class="cls-5" d="M1020.87,141.46l18.22,14-14,18.22" transform="translate(-0.19)"/><path id="Path_48899-87" data-name="Path 48899-87" class="cls-5" d="M1032.87,139.89l18.22,14-14,18.22" transform="translate(-0.19)"/><path id="Path_48899-88" data-name="Path 48899-88" class="cls-5" d="M1044.87,138.32l18.22,14-14,18.22" transform="translate(-0.19)"/><path id="Path_48899-89" data-name="Path 48899-89" class="cls-5" d="M1056.87,136.75l18.22,14-14,18.22" transform="translate(-0.19)"/><path id="Path_48899-90" data-name="Path 48899-90" class="cls-5" d="M1068.87,135.18l18.22,14-14,18.22" transform="translate(-0.19)"/><path id="Path_48899-91" data-name="Path 48899-91" class="cls-5" d="M1080.87,133.61l18.22,14-14,18.22" transform="translate(-0.19)"/><path id="Path_48899-92" data-name="Path 48899-92" class="cls-5" d="M1092.87,132l18.23,14-14,18.22" transform="translate(-0.19)"/><path id="Path_48899-93" data-name="Path 48899-93" class="cls-5" d="M1104.88,130.47l18.22,14-14,18.22" transform="translate(-0.19)"/><path id="Path_48899-94" data-name="Path 48899-94" class="cls-5" d="M1116.88,128.91l18.22,14-14,18.22" transform="translate(-0.19)"/><path id="Path_48899-95" data-name="Path 48899-95" class="cls-5" d="M1128.88,127.34l18.22,14-14,18.21" transform="translate(-0.19)"/><path id="Path_48899-96" data-name="Path 48899-96" class="cls-5" d="M1140.88,125.77l18.22,14-14,18.21" transform="translate(-0.19)"/><path id="Path_48899-97" data-name="Path 48899-97" class="cls-5" d="M1152.88,124.2l18.22,14-14,18.21" transform="translate(-0.19)"/><path id="Path_48899-98" data-name="Path 48899-98" class="cls-5" d="M1164.88,122.63l18.22,14-14,18.21" transform="translate(-0.19)"/><path id="Path_48899-99" data-name="Path 48899-99" class="cls-5" d="M1176.88,121.06l18.22,14-14,18.22" transform="translate(-0.19)"/><path id="Path_48899-100" data-name="Path 48899-100" class="cls-5" d="M1188.88,119.49l18.22,14-14,18.22" transform="translate(-0.19)"/><path id="Path_48899-101" data-name="Path 48899-101" class="cls-5" d="M1200.88,117.92l18.22,14-14,18.22" transform="translate(-0.19)"/><path id="Path_48899-102" data-name="Path 48899-102" class="cls-5" d="M1212.88,116.35l18.22,14-14,18.22" transform="translate(-0.19)"/><path id="Path_48899-103" data-name="Path 48899-103" class="cls-5" d="M1224.88,114.78l18.22,14-14,18.22" transform="translate(-0.19)"/><path id="Path_48899-104" data-name="Path 48899-104" class="cls-5" d="M1236.88,113.21l18.23,14-14,18.22" transform="translate(-0.19)"/><path id="Path_48899-105" data-name="Path 48899-105" class="cls-5" d="M1248.89,111.64l18.22,14-14,18.22" transform="translate(-0.19)"/><path id="Path_48899-106" data-name="Path 48899-106" class="cls-5" d="M1260.89,110.07l18.22,14-14,18.22" transform="translate(-0.19)"/><path id="Path_48899-107" data-name="Path 48899-107" class="cls-5" d="M1272.89,108.5l18.22,14-14,18.22" transform="translate(-0.19)"/><path id="Path_48899-108" data-name="Path 48899-108" class="cls-5" d="M1284.89,106.94l18.22,14-14,18.22" transform="translate(-0.19)"/><path id="Path_48899-109" data-name="Path 48899-109" class="cls-5" d="M1296.89,105.37l18.22,14-14,18.21" transform="translate(-0.19)"/><path id="Path_48899-110" data-name="Path 48899-110" class="cls-5" d="M1308.89,103.8l18.22,14-14,18.21" transform="translate(-0.19)"/><path id="Path_48899-111" data-name="Path 48899-111" class="cls-5" d="M1320.89,102.23l18.22,14-14,18.21" transform="translate(-0.19)"/><path id="Path_48899-112" data-name="Path 48899-112" class="cls-5" d="M1332.89,100.66l18.22,14-14,18.21" transform="translate(-0.19)"/><path id="Path_48899-113" data-name="Path 48899-113" class="cls-5" d="M1344.89,99.09l18.22,14-14,18.22" transform="translate(-0.19)"/><path id="Path_48899-114" data-name="Path 48899-114" class="cls-5" d="M1356.89,97.52l18.22,14-14,18.22" transform="translate(-0.19)"/><path id="Path_48899-115" data-name="Path 48899-115" class="cls-5" d="M1368.89,96l18.22,14-14,18.22" transform="translate(-0.19)"/><path id="Path_48899-116" data-name="Path 48899-116" class="cls-5" d="M1380.89,94.38l18.23,14-14,18.22" transform="translate(-0.19)"/><path id="Path_48899-117" data-name="Path 48899-117" class="cls-5" d="M1392.9,92.81l18.22,14-14,18.22" transform="translate(-0.19)"/><path id="Path_48899-118" data-name="Path 48899-118" class="cls-5" d="M1404.9,91.24l18.22,14-14,18.22" transform="translate(-0.19)"/><path id="Path_48899-119" data-name="Path 48899-119" class="cls-5" d="M1416.9,89.67l18.22,14-14,18.22" transform="translate(-0.19)"/><path id="Path_48899-120" data-name="Path 48899-120" class="cls-5" d="M1428.9,88.1l18.22,14-14,18.22" transform="translate(-0.19)"/><path id="Path_48899-121" data-name="Path 48899-121" class="cls-5" d="M1440.9,86.53l18.22,14-14,18.22" transform="translate(-0.19)"/><path id="Path_48899-122" data-name="Path 48899-122" class="cls-5" d="M1452.9,85l18.22,14-14,18.22" transform="translate(-0.19)"/><path id="Path_48899-123" data-name="Path 48899-123" class="cls-5" d="M1464.9,83.4l18.22,14-14,18.21" transform="translate(-0.19)"/><path id="Path_48899-124" data-name="Path 48899-124" class="cls-5" d="M1476.9,81.83l18.22,14-14,18.21" transform="translate(-0.19)"/><path id="Path_48899-125" data-name="Path 48899-125" class="cls-5" d="M1488.9,80.26l18.22,14-14,18.21" transform="translate(-0.19)"/><path id="Path_48899-126" data-name="Path 48899-126" class="cls-5" d="M1500.9,78.69l18.22,14-14,18.21" transform="translate(-0.19)"/><path id="Path_48899-127" data-name="Path 48899-127" class="cls-5" d="M1512.9,77.12l18.22,14-14,18.22" transform="translate(-0.19)"/><path id="Path_48899-128" data-name="Path 48899-128" class="cls-5" d="M1524.9,75.55l18.23,14-14,18.22" transform="translate(-0.19)"/><path id="Path_48899-129" data-name="Path 48899-129" class="cls-5" d="M1536.9,74l18.23,14-14,18.22" transform="translate(-0.19)"/><path id="Path_48899-130" data-name="Path 48899-130" class="cls-5" d="M1548.91,72.41l18.22,14-14,18.22" transform="translate(-0.19)"/><path id="Path_48899-131" data-name="Path 48899-131" class="cls-5" d="M1560.91,70.84l18.22,14-14,18.22" transform="translate(-0.19)"/><path id="Path_48899-132" data-name="Path 48899-132" class="cls-5" d="M1572.91,69.27l18.22,14-14,18.22" transform="translate(-0.19)"/><path id="Path_48899-133" data-name="Path 48899-133" class="cls-5" d="M1584.91,67.7l18.22,14-14,18.22" transform="translate(-0.19)"/><path id="Path_48899-134" data-name="Path 48899-134" class="cls-5" d="M1596.91,66.13l18.22,14-14,18.22" transform="translate(-0.19)"/><path id="Path_48899-135" data-name="Path 48899-135" class="cls-5" d="M1608.91,64.56l18.22,14-14,18.22" transform="translate(-0.19)"/><path id="Path_48899-136" data-name="Path 48899-136" class="cls-5" d="M1620.91,63l18.22,14-14,18.22" transform="translate(-0.19)"/><path id="Path_48899-137" data-name="Path 48899-137" class="cls-5" d="M1632.91,61.43l18.22,14-14,18.21" transform="translate(-0.19)"/><path id="Path_48899-138" data-name="Path 48899-138" class="cls-5" d="M1644.91,59.86l18.22,14-14,18.21" transform="translate(-0.19)"/><path id="Path_48899-139" data-name="Path 48899-139" class="cls-5" d="M1656.91,58.29l18.22,14-14,18.21" transform="translate(-0.19)"/><path id="Path_48899-140" data-name="Path 48899-140" class="cls-5" d="M1668.91,56.72l18.22,14-14,18.21" transform="translate(-0.19)"/><path id="Path_48899-141" data-name="Path 48899-141" class="cls-5" d="M1680.91,55.15l18.23,14-14,18.22" transform="translate(-0.19)"/><path id="Path_48899-142" data-name="Path 48899-142" class="cls-5" d="M1692.92,53.58l18.22,14-14,18.22" transform="translate(-0.19)"/><path id="Path_48899-143" data-name="Path 48899-143" class="cls-5" d="M1704.92,52l18.22,14-14,18.22" transform="translate(-0.19)"/><path id="Path_48899-144" data-name="Path 48899-144" class="cls-5" d="M1716.92,50.44l18.22,14-14,18.22" transform="translate(-0.19)"/><path id="Path_48899-145" data-name="Path 48899-145" class="cls-5" d="M1728.92,48.87l18.22,14-14,18.22" transform="translate(-0.19)"/><path id="Path_48899-146" data-name="Path 48899-146" class="cls-5" d="M1740.92,47.3l18.22,14-14,18.22" transform="translate(-0.19)"/><path id="Path_48899-147" data-name="Path 48899-147" class="cls-5" d="M1752.92,45.73l18.22,14-14,18.22" transform="translate(-0.19)"/><path id="Path_48899-148" data-name="Path 48899-148" class="cls-5" d="M1764.92,44.16l18.22,14-14,18.22" transform="translate(-0.19)"/><path id="Path_48899-149" data-name="Path 48899-149" class="cls-5" d="M1776.92,42.59l18.22,14-14,18.22" transform="translate(-0.19)"/><path id="Path_48899-150" data-name="Path 48899-150" class="cls-5" d="M1788.92,41l18.22,14-14,18.22" transform="translate(-0.19)"/><path id="Path_48899-151" data-name="Path 48899-151" class="cls-5" d="M1800.92,39.46l18.22,14-14,18.21" transform="translate(-0.19)"/><path id="Path_48899-152" data-name="Path 48899-152" class="cls-5" d="M1812.92,37.89l18.22,14-14,18.21" transform="translate(-0.19)"/><path id="Path_48899-153" data-name="Path 48899-153" class="cls-5" d="M1824.92,36.32l18.23,14-14,18.21" transform="translate(-0.19)"/><path id="Path_48899-154" data-name="Path 48899-154" class="cls-5" d="M1836.93,34.75l18.22,14-14,18.21" transform="translate(-0.19)"/><path id="Path_48899-155" data-name="Path 48899-155" class="cls-5" d="M1848.93,33.18l18.22,14-14,18.22" transform="translate(-0.19)"/><path id="Path_48899-156" data-name="Path 48899-156" class="cls-5" d="M1860.93,31.61l18.22,14-14,18.22" transform="translate(-0.19)"/><path id="Path_48899-157" data-name="Path 48899-157" class="cls-5" d="M1872.93,30l18.22,14-14,18.22" transform="translate(-0.19)"/><path id="Path_48899-158" data-name="Path 48899-158" class="cls-5" d="M1884.93,28.47l18.22,14-14,18.22" transform="translate(-0.19)"/><path id="Path_48899-159" data-name="Path 48899-159" class="cls-5" d="M1896.93,26.9l18.22,14-14,18.22" transform="translate(-0.19)"/><path id="Path_48899-160" data-name="Path 48899-160" class="cls-5" d="M1908.93,25.33l18.22,14-14,18.22" transform="translate(-0.19)"/><path id="Path_48899-161" data-name="Path 48899-161" class="cls-5" d="M1920.93,23.76l18.22,14-14,18.22" transform="translate(-0.19)"/><path id="Path_48899-162" data-name="Path 48899-162" class="cls-5" d="M1932.93,22.19l18.22,14-14,18.22" transform="translate(-0.19)"/></g></g></g></g></g></svg>