<svg xmlns="http://www.w3.org/2000/svg" xmlns:xlink="http://www.w3.org/1999/xlink" width="107" height="249" viewBox="0 0 107 249">
  <defs>
    <clipPath id="clip-path">
      <rect width="249" height="107" fill="none"/>
    </clipPath>
  </defs>
  <g id="Repeat_Grid_4" data-name="Repeat Grid 4" transform="translate(107) rotate(90)" opacity="0.1" clip-path="url(#clip-path)">
    <g transform="translate(1500 20528)">
      <circle id="Ellipse_1396" data-name="Ellipse 1396" cx="4.5" cy="4.5" r="4.5" transform="translate(-1500 -20528)" fill="#ec2040"/>
    </g>
    <g transform="translate(1529 20528)">
      <circle id="Ellipse_1396-2" data-name="Ellipse 1396" cx="4.5" cy="4.5" r="4.5" transform="translate(-1500 -20528)" fill="#ec2040"/>
    </g>
    <g transform="translate(1558 20528)">
      <circle id="Ellipse_1396-3" data-name="Ellipse 1396" cx="4.5" cy="4.5" r="4.5" transform="translate(-1500 -20528)" fill="#ec2040"/>
    </g>
    <g transform="translate(1587 20528)">
      <circle id="Ellipse_1396-4" data-name="Ellipse 1396" cx="4.5" cy="4.5" r="4.5" transform="translate(-1500 -20528)" fill="#ec2040"/>
    </g>
    <g transform="translate(1616 20528)">
      <circle id="Ellipse_1396-5" data-name="Ellipse 1396" cx="4.5" cy="4.5" r="4.5" transform="translate(-1500 -20528)" fill="#ec2040"/>
    </g>
    <g transform="translate(1645 20528)">
      <circle id="Ellipse_1396-6" data-name="Ellipse 1396" cx="4.5" cy="4.5" r="4.5" transform="translate(-1500 -20528)" fill="#ec2040"/>
    </g>
    <g transform="translate(1674 20528)">
      <circle id="Ellipse_1396-7" data-name="Ellipse 1396" cx="4.5" cy="4.5" r="4.5" transform="translate(-1500 -20528)" fill="#ec2040"/>
    </g>
    <g transform="translate(1703 20528)">
      <circle id="Ellipse_1396-8" data-name="Ellipse 1396" cx="4.5" cy="4.5" r="4.5" transform="translate(-1500 -20528)" fill="#ec2040"/>
    </g>
    <g transform="translate(1732 20528)">
      <circle id="Ellipse_1396-9" data-name="Ellipse 1396" cx="4.5" cy="4.5" r="4.5" transform="translate(-1500 -20528)" fill="#ec2040"/>
    </g>
    <g transform="translate(1500 20557)">
      <circle id="Ellipse_1396-10" data-name="Ellipse 1396" cx="4.5" cy="4.5" r="4.5" transform="translate(-1500 -20528)" fill="#ec2040"/>
    </g>
    <g transform="translate(1529 20557)">
      <circle id="Ellipse_1396-11" data-name="Ellipse 1396" cx="4.5" cy="4.5" r="4.5" transform="translate(-1500 -20528)" fill="#ec2040"/>
    </g>
    <g transform="translate(1558 20557)">
      <circle id="Ellipse_1396-12" data-name="Ellipse 1396" cx="4.5" cy="4.5" r="4.5" transform="translate(-1500 -20528)" fill="#ec2040"/>
    </g>
    <g transform="translate(1587 20557)">
      <circle id="Ellipse_1396-13" data-name="Ellipse 1396" cx="4.5" cy="4.5" r="4.5" transform="translate(-1500 -20528)" fill="#ec2040"/>
    </g>
    <g transform="translate(1616 20557)">
      <circle id="Ellipse_1396-14" data-name="Ellipse 1396" cx="4.5" cy="4.5" r="4.5" transform="translate(-1500 -20528)" fill="#ec2040"/>
    </g>
    <g transform="translate(1645 20557)">
      <circle id="Ellipse_1396-15" data-name="Ellipse 1396" cx="4.5" cy="4.5" r="4.5" transform="translate(-1500 -20528)" fill="#ec2040"/>
    </g>
    <g transform="translate(1674 20557)">
      <circle id="Ellipse_1396-16" data-name="Ellipse 1396" cx="4.5" cy="4.5" r="4.5" transform="translate(-1500 -20528)" fill="#ec2040"/>
    </g>
    <g transform="translate(1703 20557)">
      <circle id="Ellipse_1396-17" data-name="Ellipse 1396" cx="4.5" cy="4.5" r="4.5" transform="translate(-1500 -20528)" fill="#ec2040"/>
    </g>
    <g transform="translate(1732 20557)">
      <circle id="Ellipse_1396-18" data-name="Ellipse 1396" cx="4.5" cy="4.5" r="4.5" transform="translate(-1500 -20528)" fill="#ec2040"/>
    </g>
    <g transform="translate(1500 20586)">
      <circle id="Ellipse_1396-19" data-name="Ellipse 1396" cx="4.5" cy="4.5" r="4.5" transform="translate(-1500 -20528)" fill="#ec2040"/>
    </g>
    <g transform="translate(1529 20586)">
      <circle id="Ellipse_1396-20" data-name="Ellipse 1396" cx="4.5" cy="4.5" r="4.5" transform="translate(-1500 -20528)" fill="#ec2040"/>
    </g>
    <g transform="translate(1558 20586)">
      <circle id="Ellipse_1396-21" data-name="Ellipse 1396" cx="4.5" cy="4.5" r="4.5" transform="translate(-1500 -20528)" fill="#ec2040"/>
    </g>
    <g transform="translate(1587 20586)">
      <circle id="Ellipse_1396-22" data-name="Ellipse 1396" cx="4.5" cy="4.5" r="4.5" transform="translate(-1500 -20528)" fill="#ec2040"/>
    </g>
    <g transform="translate(1616 20586)">
      <circle id="Ellipse_1396-23" data-name="Ellipse 1396" cx="4.5" cy="4.5" r="4.5" transform="translate(-1500 -20528)" fill="#ec2040"/>
    </g>
    <g transform="translate(1645 20586)">
      <circle id="Ellipse_1396-24" data-name="Ellipse 1396" cx="4.5" cy="4.5" r="4.5" transform="translate(-1500 -20528)" fill="#ec2040"/>
    </g>
    <g transform="translate(1674 20586)">
      <circle id="Ellipse_1396-25" data-name="Ellipse 1396" cx="4.5" cy="4.5" r="4.5" transform="translate(-1500 -20528)" fill="#ec2040"/>
    </g>
    <g transform="translate(1703 20586)">
      <circle id="Ellipse_1396-26" data-name="Ellipse 1396" cx="4.5" cy="4.5" r="4.5" transform="translate(-1500 -20528)" fill="#ec2040"/>
    </g>
    <g transform="translate(1732 20586)">
      <circle id="Ellipse_1396-27" data-name="Ellipse 1396" cx="4.5" cy="4.5" r="4.5" transform="translate(-1500 -20528)" fill="#ec2040"/>
    </g>
    <g transform="translate(1500 20615)">
      <circle id="Ellipse_1396-28" data-name="Ellipse 1396" cx="4.5" cy="4.5" r="4.5" transform="translate(-1500 -20528)" fill="#ec2040"/>
    </g>
    <g transform="translate(1529 20615)">
      <circle id="Ellipse_1396-29" data-name="Ellipse 1396" cx="4.5" cy="4.5" r="4.5" transform="translate(-1500 -20528)" fill="#ec2040"/>
    </g>
    <g transform="translate(1558 20615)">
      <circle id="Ellipse_1396-30" data-name="Ellipse 1396" cx="4.5" cy="4.5" r="4.5" transform="translate(-1500 -20528)" fill="#ec2040"/>
    </g>
    <g transform="translate(1587 20615)">
      <circle id="Ellipse_1396-31" data-name="Ellipse 1396" cx="4.5" cy="4.5" r="4.5" transform="translate(-1500 -20528)" fill="#ec2040"/>
    </g>
    <g transform="translate(1616 20615)">
      <circle id="Ellipse_1396-32" data-name="Ellipse 1396" cx="4.5" cy="4.5" r="4.5" transform="translate(-1500 -20528)" fill="#ec2040"/>
    </g>
    <g transform="translate(1645 20615)">
      <circle id="Ellipse_1396-33" data-name="Ellipse 1396" cx="4.5" cy="4.5" r="4.5" transform="translate(-1500 -20528)" fill="#ec2040"/>
    </g>
    <g transform="translate(1674 20615)">
      <circle id="Ellipse_1396-34" data-name="Ellipse 1396" cx="4.5" cy="4.5" r="4.5" transform="translate(-1500 -20528)" fill="#ec2040"/>
    </g>
    <g transform="translate(1703 20615)">
      <circle id="Ellipse_1396-35" data-name="Ellipse 1396" cx="4.5" cy="4.5" r="4.5" transform="translate(-1500 -20528)" fill="#ec2040"/>
    </g>
    <g transform="translate(1732 20615)">
      <circle id="Ellipse_1396-36" data-name="Ellipse 1396" cx="4.5" cy="4.5" r="4.5" transform="translate(-1500 -20528)" fill="#ec2040"/>
    </g>
  </g>
</svg>
