<svg xmlns="http://www.w3.org/2000/svg" width="110" height="110" viewBox="0 0 110 110">
  <g id="Group_18093" data-name="Group 18093" transform="translate(-893 -2395)">
    <g id="approved" transform="translate(897.994 2400)">
      <path id="Path_48904" data-name="Path 48904" d="M167.646,164.013l-6.855,4.1a6.1,6.1,0,0,0-2.1,8.349l13.59,22.731a6.081,6.081,0,0,0,5.222,2.968c.08,0,.16,0,.24,0l9.636-.379a6.078,6.078,0,0,0,5.212-3.379l19.959-40.265a6.1,6.1,0,0,0-2.75-8.162l-7.156-3.544a6.1,6.1,0,0,0-8.159,2.75l-2.582,5.209a1.467,1.467,0,1,0,2.629,1.3l2.582-5.208a3.158,3.158,0,0,1,4.228-1.424L208.5,152.6a3.16,3.16,0,0,1,1.425,4.229l-19.96,40.266a3.146,3.146,0,0,1-2.7,1.749l-9.636.379a3.149,3.149,0,0,1-2.828-1.536l-13.59-22.731a3.16,3.16,0,0,1,1.09-4.326l6.854-4.1a3.158,3.158,0,0,1,4.326,1.09l6.9,11.535a1.467,1.467,0,0,0,2.573-.1l8.984-18.127a1.467,1.467,0,1,0-2.629-1.3l-7.79,15.718L176,166.116a6.1,6.1,0,0,0-8.349-2.1Z" transform="translate(-126.953 -117.275)" fill="#0f2a4a"/>
      <path id="Path_48905" data-name="Path 48905" d="M85.488,14.666A50.082,50.082,0,0,0,1.905,63.776a1.467,1.467,0,1,0,2.823-.8,46.873,46.873,0,1,1,1.849,5.3A1.467,1.467,0,0,0,3.87,69.405,50.09,50.09,0,0,0,85.488,85.484a50.079,50.079,0,0,0,0-70.818Z" transform="translate(0)" fill="#0f2a4a"/>
      <path id="Path_48906" data-name="Path 48906" d="M69.258,300.175a1.467,1.467,0,0,0-2.071.125l-7.877,8.89-.028.033a1.723,1.723,0,0,0,1.32,2.827q.084,0,.168-.008l.036,0,11.8-1.435a1.467,1.467,0,0,0-.354-2.913l-1.936.236L68.094,303.7l1.289-1.455A1.467,1.467,0,0,0,69.258,300.175ZM67.2,308.3l-3.572.434,2.384-2.69Z" transform="translate(-47.359 -241.162)" fill="#0f2a4a"/>
      <path id="Path_48907" data-name="Path 48907" d="M269.687,38.067a1.467,1.467,0,1,0,.439-2.9l-4.653-.7a1.467,1.467,0,0,0-1.67,1.231l-1.669,11.043a1.467,1.467,0,0,0,1.231,1.67l4.653.7a1.467,1.467,0,0,0,.439-2.9l-3.2-.484.4-2.62,2.859.432a1.467,1.467,0,0,0,.439-2.9l-2.859-.432.4-2.62Z" transform="translate(-210.842 -27.708)" fill="#0f2a4a"/>
      <path id="Path_48908" data-name="Path 48908" d="M311.859,67.793c.082.046,2.012,1.12,2.79,1.54a5.406,5.406,0,0,0,2.58.661,6.908,6.908,0,0,0,5.834-3.861c2.032-3.617,1.336-7.2-1.732-8.929l-2.7-1.518a1.467,1.467,0,0,0-2,.563l-5.34,9.548a1.467,1.467,0,0,0,.568,2Zm6.615-8.829,1.419.8c2.386,1.341,1.071,4.115.611,4.934-1.329,2.365-3.2,2.737-4.464,2.055-.341-.184-.927-.507-1.471-.808C315.2,64.818,317.819,60.133,318.473,58.964Z" transform="translate(-250.247 -44.643)" fill="#0f2a4a"/>
      <path id="Path_48909" data-name="Path 48909" d="M198.842,33.917a1.467,1.467,0,0,0-1.683,1.214l-1.3,8-3.88-7.2a1.467,1.467,0,0,0-2.583,1.392l5.579,10.355a1.721,1.721,0,0,0,3.208-.551L200.055,35.6a1.467,1.467,0,0,0-1.213-1.683Z" transform="translate(-152.207 -27.267)" fill="#0f2a4a"/>
      <path id="Path_48910" data-name="Path 48910" d="M71.937,121.1a4.486,4.486,0,0,0-6.183,1.379l-1.652,2.5a1.467,1.467,0,0,0,.418,2.036l9.394,6.219a1.467,1.467,0,1,0,1.619-2.447L73,129.105l5.286-.73a1.467,1.467,0,1,0-.4-2.906l-4.2.581a4.425,4.425,0,0,0-1.742-4.954Zm-3.736,3a1.471,1.471,0,1,1,2.439,1.613c-.2.3-.522.794-.832,1.267-.46-.3-1.965-1.292-2.447-1.609Z" transform="translate(-51.362 -96.841)" fill="#0f2a4a"/>
      <path id="Path_48911" data-name="Path 48911" d="M34.9,254.208l.344,3.12a1.467,1.467,0,0,0,1.624,1.3l11.2-1.234a1.467,1.467,0,1,0-.321-2.916l-3.416.376c-.07-.611-.146-1.273-.189-1.661a4.713,4.713,0,0,0-1.7-3.136,4.575,4.575,0,0,0-6.56.723A4.713,4.713,0,0,0,34.9,254.208Zm3.291-1.627a1.642,1.642,0,0,1,2.382-.262,1.794,1.794,0,0,1,.65,1.193c.042.385.117,1.038.187,1.647-.63.073-2.751.311-3.411.386l-.182-1.657A1.793,1.793,0,0,1,38.2,252.581Z" transform="translate(-28.05 -200.286)" fill="#0f2a4a"/>
      <path id="Path_48912" data-name="Path 48912" d="M39.058,186.547l-.628,3.075a1.467,1.467,0,0,0,1.149,1.732l11.039,2.252a1.467,1.467,0,0,0,.587-2.875l-3.367-.687c.12-.6.25-1.257.328-1.639a4.684,4.684,0,0,0-3.612-5.544,4.576,4.576,0,0,0-3.515.718,4.711,4.711,0,0,0-1.981,2.967Zm2.875.587a1.794,1.794,0,0,1,.757-1.128,1.668,1.668,0,0,1,1.278-.269,1.769,1.769,0,0,1,1.324,2.082c-.077.379-.206,1.024-.326,1.625-.622-.124-2.714-.546-3.366-.677Z" transform="translate(-30.885 -147.018)" fill="#0f2a4a"/>
      <path id="Path_48913" data-name="Path 48913" d="M125.269,64.494a7.1,7.1,0,1,0,4.565,2.951,7.057,7.057,0,0,0-4.565-2.951Zm1.088,10.417a4.169,4.169,0,1,1-2.377-7.6,4.224,4.224,0,0,1,.76.069,4.169,4.169,0,0,1,1.617,7.531Z" transform="translate(-94.017 -51.784)" fill="#0f2a4a"/>
    </g>
    <g id="Ellipse_1494" data-name="Ellipse 1494" transform="translate(893 2395)" fill="none" stroke="#ec2040" stroke-width="8">
      <circle cx="55" cy="55" r="55" stroke="none"/>
      <circle cx="55" cy="55" r="51" fill="none"/>
    </g>
  </g>
</svg>
