<svg xmlns="http://www.w3.org/2000/svg" width="56.488" height="50" viewBox="0 0 56.488 50">
  <g id="Group_16809" data-name="Group 16809" transform="translate(508.97 -60.509)">
    <path id="Path_47462" data-name="Path 47462" d="M-198.716,73.171a1.885,1.885,0,0,1-1.963,1.272c0,.829.008,1.63,0,2.431a3.078,3.078,0,0,1-.094.869,1.614,1.614,0,0,1-1.762,1.1,1.656,1.656,0,0,1-1.446-1.68c-.018-.879,0-1.758,0-2.7-.215-.012-.409-.032-.6-.033-1.635,0-3.27,0-4.906,0-1.72-.008-2.446-1.243-1.6-2.742q2.6-4.572,5.228-9.124a6.069,6.069,0,0,1,.925-1.226,2.362,2.362,0,0,1,2.522-.672,2.452,2.452,0,0,1,1.7,2.05,9.687,9.687,0,0,1,.1,1.646c.01,2.221,0,4.443,0,6.748a1.823,1.823,0,0,1,1.891,1.287Zm-5.233-7.223-.088-.037-2.94,5.171h3.027Z" transform="translate(-253.766 -0.028)" fill="#54BFCC"/>
    <path id="Path_47463" data-name="Path 47463" d="M-508.97,97.472a11.2,11.2,0,0,1,3.061-7.858c1.449-1.537,2.957-3.022,4.479-4.488a6.043,6.043,0,0,1,7.265-.591,8.992,8.992,0,0,1,1.648,1.278c1.738,1.692,3.449,3.413,5.157,5.136a6.8,6.8,0,0,1,2.118,6.2,5.273,5.273,0,0,1-1.479,2.838c-.539.552-1.09,1.093-1.636,1.64a1.978,1.978,0,0,0-.41,2.5,4.114,4.114,0,0,0,.723.961c1.588,1.609,3.179,3.216,4.8,4.788a4,4,0,0,0,1.329.839,1.781,1.781,0,0,0,2.063-.48c.426-.457.9-.867,1.32-1.331a6.2,6.2,0,0,1,8.314-.673,4.641,4.641,0,0,1,.6.479c2.033,2.021,4.128,3.986,6.068,6.094a6.134,6.134,0,0,1,1.459,6.388,6.156,6.156,0,0,1-1.3,2.132q-2,2.169-4.165,4.177c-2.955,2.74-6.441,3.213-10.221,2.222a15.8,15.8,0,0,1-5.837-3.229,180.063,180.063,0,0,1-21.9-21,12.624,12.624,0,0,1-3.277-6.379C-508.888,98.486-508.93,97.843-508.97,97.472Z" transform="translate(0 -19.697)" fill="#54BFCC"/>
    <path id="Path_47464" data-name="Path 47464" d="M-295.454,75.48c1.419,0,2.719,0,4.019,0a3.36,3.36,0,0,1,.817.085,1.6,1.6,0,0,1,1.2,1.743,1.581,1.581,0,0,1-1.531,1.463c-2.5.011-5-.019-7.494-.026a1.758,1.758,0,0,1-1.426-2.866q2.519-3.412,4.969-6.875a16.271,16.271,0,0,0,1.288-2.235,2.01,2.01,0,0,0-1.172-2.865,2.106,2.106,0,0,0-2.713,1.561,1.689,1.689,0,0,1-1.75,1.364,1.653,1.653,0,0,1-1.516-1.556,2.477,2.477,0,0,1,.1-.759,5.39,5.39,0,0,1,6-3.959,5.313,5.313,0,0,1,4.587,5.354,6.145,6.145,0,0,1-.773,2.716c-1.015,1.76-2.208,3.418-3.342,5.108C-294.563,74.3-294.98,74.831-295.454,75.48Z" transform="translate(-177.587 0)" fill="#54BFCC"/>
  </g>
</svg>
