<svg xmlns="http://www.w3.org/2000/svg" width="16.872" height="16.873" viewBox="0 0 16.872 16.873">
  <g id="Group_16497" data-name="Group 16497" transform="translate(730.2 111.176)">
    <path id="Path_47418" data-name="Path 47418" d="M-725.649-94.176a2.205,2.205,0,0,1-.972-.413c-.076-.063-.152-.127-.222-.2q-1.482-1.488-2.961-2.978a1.229,1.229,0,0,1-.325-1.317,1.24,1.24,0,0,1,1.032-.88,1.52,1.52,0,0,1,.263-.014h2.757v-.214q0-5.065,0-10.13a.667.667,0,0,1,.376-.659.656.656,0,0,1,.941.547c0,.038,0,.077,0,.115q0,5.139,0,10.278a1.315,1.315,0,0,1-1.129,1.365,1.723,1.723,0,0,1-.279.015h-2.644c.037.047.058.08.085.108q1.4,1.414,2.81,2.827a.653.653,0,0,0,.955.041c.077-.07.148-.147.222-.22L-722-98.585l-.041-.072c-.209,0-.418.005-.627,0a.654.654,0,0,1-.607-.869.59.59,0,0,1,.528-.435,4.791,4.791,0,0,1,1.066.023,1.272,1.272,0,0,1,.795,2,2,2,0,0,1-.206.235q-1.433,1.444-2.868,2.886a2,2,0,0,1-1.17.617.255.255,0,0,0-.06.025Z" transform="translate(0 -0.127)" fill="#764C99"/>
    <path id="Path_47419" data-name="Path 47419" d="M-498.57-106.46a.81.81,0,0,0-.034.089,1.284,1.284,0,0,1-1.269,1c-.236,0-.472,0-.708,0a.656.656,0,0,1-.657-.662.657.657,0,0,1,.665-.654c.2,0,.4,0,.613,0a.563.563,0,0,0-.055-.084q-1.421-1.432-2.845-2.862a.645.645,0,0,0-.966-.008q-1.437,1.439-2.869,2.885c-.011.012-.021.026-.055.069h2.675a1.318,1.318,0,0,1,1.386,1.386q0,5.09,0,10.179a.754.754,0,0,1-.532.822h-.264a.752.752,0,0,1-.532-.821q.012-5.015,0-10.03v-.219h-2.768a1.287,1.287,0,0,1-1.251-.8,1.286,1.286,0,0,1,.322-1.447q1.445-1.454,2.892-2.907a1.969,1.969,0,0,1,2.925,0c.961.964,1.918,1.932,2.882,2.894a1.661,1.661,0,0,1,.433.777Z" transform="translate(-214.757 0)" fill="#764C99"/>
  </g>
</svg>
