<?xml version="1.0" encoding="utf-8"?>
<!-- Generator: Adobe Illustrator 24.3.0, SVG Export Plug-In . SVG Version: 6.00 Build 0)  -->
<svg version="1.1" id="Group_17874" xmlns="http://www.w3.org/2000/svg" xmlns:xlink="http://www.w3.org/1999/xlink" x="0px"
	 y="0px" viewBox="0 0 20 20" style="enable-background:new 0 0 20 20;" xml:space="preserve">
<style type="text/css">
	.st0{fill:#FBE4E4;}
	.st1{fill:#54BFCC;}
</style>
<g>
	<circle class="st0" cx="10" cy="10" r="10"/>
</g>
<g>
	<path class="st1" d="M10.6,19.5c0-0.3,0.2-0.5,0.4-0.6l0,0c0.3,0,0.5,0.2,0.5,0.5l0,0c0,0.3-0.2,0.5-0.4,0.5l0,0c0,0,0,0-0.1,0l0,0
		C10.8,19.9,10.6,19.8,10.6,19.5z M8.6,19.9L8.6,19.9L8.6,19.9c-0.3,0-0.5-0.3-0.4-0.6l0,0c0-0.3,0.3-0.5,0.6-0.4l0,0
		c0.3,0,0.5,0.3,0.4,0.6l0,0C9.1,19.7,8.9,19.9,8.6,19.9L8.6,19.9C8.6,19.9,8.6,19.9,8.6,19.9z M12.9,19.1c-0.1-0.3,0-0.5,0.3-0.6
		l0,0c0.3-0.1,0.5,0,0.6,0.3l0,0c0.1,0.3,0,0.5-0.3,0.6l0,0l0,0l0,0c-0.1,0-0.1,0-0.2,0l0,0C13.2,19.4,13,19.3,12.9,19.1z M6.2,19.2
		c-0.2-0.1-0.4-0.4-0.3-0.7l0,0c0.1-0.2,0.4-0.4,0.7-0.3l0,0c0.2,0.1,0.4,0.4,0.3,0.7l0,0c-0.1,0.2-0.3,0.3-0.5,0.3l0,0
		C6.3,19.3,6.2,19.3,6.2,19.2z M15.1,18c-0.2-0.2-0.1-0.5,0.1-0.7l0,0c0.2-0.2,0.5-0.1,0.7,0.1l0,0c0.2,0.2,0.1,0.5-0.1,0.7l0,0l0,0
		l0,0c-0.1,0.1-0.2,0.1-0.3,0.1l0,0C15.3,18.2,15.2,18.2,15.1,18z M4,18L4,18L4,18c-0.2-0.2-0.3-0.5-0.1-0.7l0,0
		C4,17.1,4.4,17,4.6,17.2l0,0c0.2,0.2,0.3,0.5,0.1,0.7l0,0c-0.1,0.1-0.2,0.2-0.4,0.2l0,0C4.2,18.1,4.1,18,4,18z M16.9,16.5
		c-0.2-0.2-0.2-0.5-0.1-0.7l0,0c0.2-0.2,0.5-0.2,0.7-0.1l0,0c0.2,0.2,0.2,0.5,0.1,0.7l0,0c-0.1,0.1-0.2,0.2-0.4,0.2l0,0
		C17.1,16.6,17,16.6,16.9,16.5z M2.2,16.2C2,16,2,15.7,2.2,15.5l0,0c0.2-0.2,0.5-0.1,0.7,0.1l0,0c0.2,0.2,0.1,0.5-0.1,0.7l0,0
		c-0.1,0.1-0.2,0.1-0.3,0.1l0,0C2.4,16.4,2.3,16.3,2.2,16.2z M18.3,14.6c-0.2-0.1-0.3-0.4-0.2-0.7l0,0c0.1-0.2,0.4-0.4,0.7-0.2l0,0
		c0.2,0.1,0.4,0.4,0.2,0.7l0,0c-0.1,0.2-0.3,0.3-0.5,0.3l0,0C18.5,14.6,18.4,14.6,18.3,14.6z M0.9,14.1L0.9,14.1L0.9,14.1
		c-0.1-0.2,0-0.5,0.2-0.7l0,0c0.2-0.1,0.6,0,0.7,0.2l0,0c0.1,0.3,0,0.5-0.2,0.7l0,0c-0.1,0-0.1,0.1-0.2,0.1l0,0
		C1.1,14.4,0.9,14.3,0.9,14.1z M19.2,12.3c-0.3-0.1-0.5-0.3-0.4-0.6l0,0c0-0.3,0.3-0.5,0.6-0.4l0,0c0.3,0,0.4,0.3,0.4,0.6l0,0
		c0,0,0,0,0,0l0,0C19.8,12.2,19.5,12.4,19.2,12.3L19.2,12.3C19.3,12.4,19.2,12.4,19.2,12.3z M0.1,11.7c0-0.3,0.1-0.5,0.4-0.6l0,0
		c0.3,0,0.5,0.1,0.6,0.4v0C1.2,11.8,1,12,0.7,12.1l0,0c0,0-0.1,0-0.1,0l0,0C0.4,12.1,0.2,11.9,0.1,11.7z M19,9.5
		C19,9.2,19.2,9,19.5,9l0,0C19.7,9,20,9.2,20,9.4l0,0c0,0.3-0.2,0.5-0.5,0.5l0,0c0,0,0,0,0,0l0,0C19.2,10,19,9.8,19,9.5z M0.5,9.7
		C0.2,9.7,0,9.4,0,9.1l0,0c0-0.3,0.3-0.5,0.5-0.5l0,0c0.3,0,0.5,0.3,0.5,0.5l0,0C1,9.5,0.8,9.7,0.5,9.7L0.5,9.7
		C0.5,9.7,0.5,9.7,0.5,9.7z M18.6,7.3c-0.1-0.3,0.1-0.5,0.3-0.6l0,0c0.3-0.1,0.6,0.1,0.6,0.3l0,0c0.1,0.3-0.1,0.5-0.3,0.6l0,0
		c0,0-0.1,0-0.2,0l0,0C18.8,7.6,18.6,7.5,18.6,7.3z M0.9,7.3C0.6,7.2,0.5,6.9,0.6,6.7l0,0c0.1-0.3,0.4-0.4,0.6-0.3l0,0
		C1.5,6.5,1.6,6.8,1.5,7l0,0C1.4,7.2,1.2,7.3,1,7.3l0,0C1,7.3,0.9,7.3,0.9,7.3z M17.6,5.2L17.6,5.2c-0.1-0.2-0.1-0.5,0.2-0.7l0,0
		c0.2-0.1,0.5-0.1,0.7,0.2l0,0c0.2,0.2,0.1,0.5-0.2,0.7l0,0c-0.1,0.1-0.2,0.1-0.3,0.1l0,0C17.9,5.4,17.7,5.4,17.6,5.2z M1.8,5.1
		C1.6,5,1.5,4.7,1.7,4.4l0,0c0.2-0.2,0.5-0.3,0.7-0.1l0,0C2.6,4.4,2.7,4.8,2.5,5l0,0C2.4,5.1,2.3,5.2,2.1,5.2l0,0
		C2,5.2,1.9,5.2,1.8,5.1z M16.2,3.5c-0.2-0.2-0.2-0.5,0-0.7l0,0c0.2-0.2,0.5-0.2,0.7,0l0,0c0.2,0.2,0.2,0.5,0,0.7l0,0
		c-0.1,0.1-0.2,0.2-0.4,0.2l0,0C16.4,3.6,16.3,3.5,16.2,3.5z M3.3,3.2C3.1,3,3.1,2.7,3.3,2.5l0,0c0.2-0.2,0.5-0.2,0.7,0l0,0
		c0.2,0.2,0.2,0.5,0,0.7l0,0C3.9,3.4,3.8,3.4,3.7,3.4l0,0C3.5,3.4,3.4,3.3,3.3,3.2z M14.3,2.1L14.3,2.1C14.1,2,14,1.7,14.2,1.4l0,0
		c0.1-0.2,0.4-0.3,0.7-0.2l0,0c0.2,0.1,0.3,0.4,0.2,0.7l0,0c-0.1,0.2-0.3,0.3-0.4,0.3l0,0C14.5,2.2,14.4,2.2,14.3,2.1z M5.2,1.8
		c-0.1-0.2,0-0.5,0.2-0.7l0,0C5.7,1,6,1.1,6.1,1.3l0,0c0.1,0.2,0,0.5-0.2,0.7l0,0C5.8,2,5.7,2,5.7,2l0,0C5.5,2,5.3,1.9,5.2,1.8z
		 M12.2,1.3c-0.3-0.1-0.4-0.3-0.4-0.6l0,0c0.1-0.3,0.3-0.4,0.6-0.4l0,0c0.3,0.1,0.4,0.3,0.4,0.6l0,0c-0.1,0.2-0.3,0.4-0.5,0.4l0,0
		C12.3,1.3,12.3,1.3,12.2,1.3z M7.4,0.8C7.3,0.6,7.5,0.3,7.8,0.2l0,0c0.3-0.1,0.5,0.1,0.6,0.4l0,0C8.4,0.9,8.3,1.2,8,1.2l0,0
		c0,0-0.1,0-0.1,0l0,0C7.7,1.2,7.5,1.1,7.4,0.8z M9.5,0.5C9.5,0.2,9.7,0,10,0l0,0c0.3,0,0.5,0.2,0.5,0.5l0,0C10.5,0.8,10.3,1,10,1
		l0,0C9.7,1,9.5,0.8,9.5,0.5z"/>
</g>
<g id="Line_813">
	<rect x="8.7" y="5.5" class="st1" width="2" height="9.4"/>
</g>
<g id="Line_814">
	<rect x="4.8" y="9.2" class="st1" width="9.9" height="2"/>
</g>
</svg>
