<svg id="Group_16880" data-name="Group 16880" xmlns="http://www.w3.org/2000/svg" width="21.871" height="28.12" viewBox="0 0 21.871 28.12">
  <path id="Path_47403" data-name="Path 47403" d="M1.116,0H20.755a1.116,1.116,0,0,1,1.116,1.116V27a1.116,1.116,0,0,1-1.116,1.116h-.51L10.8,19.325,1.845,28.12H1.116A1.116,1.116,0,0,1,0,27V1.116A1.116,1.116,0,0,1,1.116,0Z" transform="translate(0 0)" fill="#764C99"/>
  <path id="Polygon_9" data-name="Polygon 9" d="M7.165,1.137a.4.4,0,0,1,.759,0l1.31,3.925a.4.4,0,0,0,.379.273H13.83a.4.4,0,0,1,.231.727l-3.393,2.4a.4.4,0,0,0-.148.453l1.3,3.895a.4.4,0,0,1-.61.453L7.775,10.833a.4.4,0,0,0-.462,0L3.879,13.262a.4.4,0,0,1-.61-.453l1.3-3.895A.4.4,0,0,0,4.42,8.46l-3.393-2.4a.4.4,0,0,1,.231-.727H5.475a.4.4,0,0,0,.379-.273Z" transform="translate(3.391 2.261)" fill="#fff"/>
</svg>
