<svg xmlns="http://www.w3.org/2000/svg" width="29.952" height="29.952" viewBox="0 0 29.952 29.952">
  <path id="Path_47942" data-name="Path 47942" d="M5.79,0a4.31,4.31,0,0,1,.748.324,1.58,1.58,0,0,1,.7,1.335,13.239,13.239,0,0,0,.329,2.785c.092.374.205.742.3,1.115A1.714,1.714,0,0,1,7.5,7.121c-.6.764-1.177,1.545-1.756,2.324a.246.246,0,0,0,0,.212,13.27,13.27,0,0,0,5.476,5.606c.121.066.239.137.358.2.018.01.038.017.072.033l.535-.4c.669-.509,1.334-1.022,2.006-1.526a1.571,1.571,0,0,1,1.371-.264c.561.137,1.114.323,1.682.413.719.113,1.448.171,2.176.216a1.726,1.726,0,0,1,1.583.97,4.058,4.058,0,0,1,.169.482v4.344c-.008.011-.021.021-.023.033a1.693,1.693,0,0,1-1.828,1.413c-.653-.039-1.308-.057-1.959-.123A18.5,18.5,0,0,1,11.9,19.63a19.368,19.368,0,0,1-8.338-6.75A19.26,19.26,0,0,1,0,1.727,1.7,1.7,0,0,1,.394.6,1.909,1.909,0,0,1,1.446,0Z" transform="translate(29.952 14.977) rotate(135)" fill="#54BFCC"/>
</svg>
