<svg id="Group_16763" data-name="Group 16763" xmlns="http://www.w3.org/2000/svg" width="9.62" height="13.81" viewBox="0 0 9.62 13.81">
  <path id="Path_47456" data-name="Path 47456" d="M1494.01,1018.237c-.137-.018-.275-.034-.411-.055a4.828,4.828,0,0,1-3.977-5.9,5.306,5.306,0,0,1,.358-1,23.513,23.513,0,0,0,1.354-3.139l.627.151c-.023.177-.04.354-.068.529a3.449,3.449,0,0,0,.258,2.027c.106.232.25.447.376.669l.05-.02c0-.308-.015-.617,0-.924a7.71,7.71,0,0,1,2.351-5.27,6.092,6.092,0,0,1,.629-.506,1.28,1.28,0,0,1,.645-.248c.294-.031.587-.078.911-.122-.1.116-.189.21-.271.308a7.18,7.18,0,0,0-.666.81,2.047,2.047,0,0,0-.039,2.06,7.317,7.317,0,0,0,1,1.369,17.484,17.484,0,0,1,1.111,1.455,5.135,5.135,0,0,1,.755,3.82,4.69,4.69,0,0,1-3.294,3.764,7.326,7.326,0,0,1-1.054.2l-.1.021Zm-2.808-7.651c-.16.327-.3.613-.44.9a4.17,4.17,0,0,0-.447,2.427,3.938,3.938,0,0,0,1.464,2.628,3.841,3.841,0,0,0,3.155.835,3.88,3.88,0,0,0,2.707-1.782,4.191,4.191,0,0,0,.563-3.142,5.013,5.013,0,0,0-1.106-2.277c-.425-.528-.875-1.038-1.286-1.577a3.217,3.217,0,0,1-.719-2.205.432.432,0,0,0-.011-.079,6.761,6.761,0,0,0-1.148,1.827,7.823,7.823,0,0,0-.471,4.2c.034.23.066.459.1.687A3.238,3.238,0,0,1,1491.2,1010.586Z" transform="translate(-1489.477 -1004.427)" fill="#d1d1d1"/>
</svg>
