<svg xmlns="http://www.w3.org/2000/svg" width="34.726" height="25.502" viewBox="0 0 34.726 25.502">
  <g id="Group_17307" data-name="Group 17307" transform="translate(-1681 -561)">
    <g id="Group_17305" data-name="Group 17305" transform="translate(1681 561)">
      <path id="Path_48011" data-name="Path 48011" d="M269.913,250.788V269.1a.754.754,0,0,0-.05.124,4.06,4.06,0,0,1-4.3,3.47q-13.088,0-26.176,0a4.063,4.063,0,0,1-4.2-4.188q-.006-8.562,0-17.123a4.535,4.535,0,0,1,.1-1.007,4.054,4.054,0,0,1,4.1-3.18q13.054,0,26.109,0c.158,0,.317,0,.475,0a4.048,4.048,0,0,1,3.113,1.613A4.682,4.682,0,0,1,269.913,250.788ZM237.9,257.1v.356q0,5.476,0,10.952a1.39,1.39,0,0,0,1.558,1.571h26.175a1.391,1.391,0,0,0,1.565-1.565q0-5.476,0-10.952V257.1Zm29.287-4.093c0-.651.038-1.285-.01-1.911a1.35,1.35,0,0,0-1.51-1.192H239.426c-.09,0-.181,0-.271.007a1.308,1.308,0,0,0-1.228,1.158c-.049.637-.011,1.281-.011,1.938Z" transform="translate(-235.187 -247.193)" fill="#a8a5a5"/>
      <path id="Path_48012" data-name="Path 48012" d="M289.78,390.881V388.21h17.862v2.671Z" transform="translate(-285.152 -376.255)" fill="#a8a5a5"/>
    </g>
  </g>
</svg>
