<svg xmlns="http://www.w3.org/2000/svg" width="21.773" height="17.375" viewBox="0 0 21.773 17.375">
  <g id="Group_17231" data-name="Group 17231" transform="translate(0.5 0.498)">
    <path id="Path_47939" data-name="Path 47939" d="M-499.7,33.661a2.593,2.593,0,0,1-.43,1.078,2.128,2.128,0,0,1-1.216.821c-.155.037-.2.1-.2.256.008.71.007,1.42,0,2.13,0,.465-.292.767-.69.7a.934.934,0,0,1-.432-.236q-1.431-1.306-2.843-2.631a.449.449,0,0,0-.34-.133c-.587.007-1.175,0-1.792,0,0,.173,0,.333,0,.492a8.983,8.983,0,0,1-.044,1.233,2.153,2.153,0,0,1-2.153,1.807c-1.663.007-3.326,0-4.989,0a.508.508,0,0,0-.363.134c-.863.748-1.732,1.49-2.6,2.235a.647.647,0,0,1-.724.163.652.652,0,0,1-.377-.679c.007-.595,0-1.19,0-1.785a.185.185,0,0,0-.14-.207,2.156,2.156,0,0,1-1.413-1.711.742.742,0,0,0-.032-.1V32.159a.364.364,0,0,0,.024-.054,2.226,2.226,0,0,1,2.431-1.879h3.543v-.243c0-.784-.005-1.568,0-2.352a2.178,2.178,0,0,1,2.212-2.234c3.447-.012,6.893-.007,10.34,0a2.182,2.182,0,0,1,1.757.858,2.759,2.759,0,0,1,.465,1.039Zm-3.081,2.967c0-.52,0-.986,0-1.452,0-.54.221-.764.76-.77a.982.982,0,0,0,1.09-1.092q0-2.8,0-5.6a1.5,1.5,0,0,0-.05-.4.959.959,0,0,0-1.024-.686h-7.24c-.994,0-1.987,0-2.981,0a.95.95,0,0,0-1.017.976q-.013,2.91,0,5.821a.875.875,0,0,0,.5.843,1.519,1.519,0,0,0,.622.128q3.265.013,6.53,0a.956.956,0,0,1,.712.274c.438.422.89.83,1.336,1.243Zm-6.1-.983h-.243c-1.041,0-2.082.006-3.123,0a2.192,2.192,0,0,1-2.23-2.219c-.006-.5,0-1,0-1.5v-.447c-.077-.005-.13-.011-.183-.011-1.183,0-2.365,0-3.548,0a.958.958,0,0,0-1.035,1.021q-.013,2.22,0,4.441a.957.957,0,0,0,.918,1.017c.491.066.658.254.659.745,0,.355,0,.71,0,1.1.08-.06.128-.093.172-.13.57-.488,1.142-.973,1.706-1.467a.944.944,0,0,1,.663-.247c.953.007,1.906,0,2.859,0,.777,0,1.554,0,2.332,0a.955.955,0,0,0,1.046-.883C-508.856,36.6-508.881,36.137-508.881,35.645Z" transform="translate(520.475 -25.388)" fill="#fff" stroke="rgba(0,0,0,0)" stroke-width="1"/>
    <path id="Path_47940" data-name="Path 47940" d="M-334.954,93.322q-1.743,0-3.487,0a.617.617,0,0,1-.682-.655.6.6,0,0,1,.515-.565,2.032,2.032,0,0,1,.283-.014h6.771a2.335,2.335,0,0,1,.243.009.6.6,0,0,1,.562.606.607.607,0,0,1-.577.616c-.182.013-.365,0-.547,0Z" transform="translate(348.321 -88.703)" fill="#fff" stroke="rgba(0,0,0,0)" stroke-width="1"/>
    <path id="Path_47941" data-name="Path 47941" d="M-334.929,142.268q1.7,0,3.405,0a1.5,1.5,0,0,1,.3.025.594.594,0,0,1,.476.6.6.6,0,0,1-.484.592,1.316,1.316,0,0,1-.261.023h-6.892c-.476,0-.762-.26-.735-.664a.589.589,0,0,1,.462-.547,1.433,1.433,0,0,1,.3-.027Q-336.642,142.266-334.929,142.268Z" transform="translate(348.317 -136.34)" fill="#fff" stroke="rgba(0,0,0,0)" stroke-width="1"/>
  </g>
</svg>
