<svg xmlns="http://www.w3.org/2000/svg" width="30.976" height="24.414" viewBox="0 0 30.976 24.414">
  <g id="Group_17230" data-name="Group 17230" transform="translate(520.475 -25.388)">
    <path id="Path_47939" data-name="Path 47939" d="M-489.5,37.723a3.865,3.865,0,0,1-.642,1.608,3.173,3.173,0,0,1-1.814,1.224c-.231.056-.3.146-.3.382.012,1.058.011,2.117,0,3.175,0,.694-.435,1.144-1.029,1.038a1.392,1.392,0,0,1-.644-.352q-2.133-1.947-4.24-3.923a.67.67,0,0,0-.507-.2c-.876.01-1.752,0-2.672,0,0,.258,0,.5,0,.734a13.383,13.383,0,0,1-.066,1.839,3.21,3.21,0,0,1-3.21,2.695c-2.48.01-4.96.005-7.44,0a.757.757,0,0,0-.541.2c-1.287,1.116-2.583,2.222-3.875,3.332a.965.965,0,0,1-1.08.243.973.973,0,0,1-.562-1.012c.01-.887,0-1.774.007-2.661a.276.276,0,0,0-.208-.308,3.214,3.214,0,0,1-2.107-2.552,1.091,1.091,0,0,0-.047-.142V35.485a.546.546,0,0,0,.035-.081,3.319,3.319,0,0,1,3.625-2.8h5.284v-.363c0-1.169-.008-2.338,0-3.507a3.248,3.248,0,0,1,3.3-3.332c5.139-.018,10.279-.01,15.418,0a3.254,3.254,0,0,1,2.62,1.279,4.112,4.112,0,0,1,.693,1.549Zm-4.594,4.424c0-.775,0-1.47,0-2.165,0-.806.33-1.139,1.134-1.148a1.465,1.465,0,0,0,1.626-1.628q0-4.173,0-8.347a2.243,2.243,0,0,0-.074-.6,1.43,1.43,0,0,0-1.527-1.023q-5.4,0-10.8,0c-1.482,0-2.964-.006-4.445,0a1.417,1.417,0,0,0-1.517,1.455q-.019,4.34,0,8.679a1.3,1.3,0,0,0,.743,1.258,2.266,2.266,0,0,0,.928.191q4.869.02,9.738,0a1.425,1.425,0,0,1,1.062.408c.653.629,1.327,1.238,1.992,1.854Zm-9.093-1.465h-.362c-1.552,0-3.1.009-4.656,0a3.269,3.269,0,0,1-3.325-3.309c-.01-.746,0-1.492,0-2.237v-.666c-.115-.007-.194-.017-.273-.017-1.764,0-3.527,0-5.291,0a1.428,1.428,0,0,0-1.543,1.523q-.019,3.311,0,6.621a1.428,1.428,0,0,0,1.369,1.516c.732.1.981.378.983,1.11,0,.529,0,1.059,0,1.645.119-.09.191-.138.256-.194.85-.728,1.7-1.451,2.545-2.187a1.408,1.408,0,0,1,.988-.368c1.421.01,2.842,0,4.263,0,1.159,0,2.318,0,3.477,0A1.424,1.424,0,0,0-503.2,42.8C-503.149,42.112-503.186,41.416-503.186,40.682Z" transform="translate(0 0)" fill="#54BFCC"/>
    <path id="Path_47940" data-name="Path 47940" d="M-332.906,93.928q-2.6,0-5.2,0a.92.92,0,0,1-1.016-.977.888.888,0,0,1,.768-.842,3.031,3.031,0,0,1,.422-.022q5.048,0,10.1,0a3.482,3.482,0,0,1,.362.013.9.9,0,0,1,.837.9.905.905,0,0,1-.86.918c-.271.02-.544.007-.816.007Z" transform="translate(-167.637 -61.653)" fill="#54BFCC"/>
    <path id="Path_47941" data-name="Path 47941" d="M-332.871,142.268q2.539,0,5.078,0a2.242,2.242,0,0,1,.45.037.886.886,0,0,1,.71.891.892.892,0,0,1-.721.883,1.96,1.96,0,0,1-.39.034q-5.139,0-10.277,0c-.71,0-1.136-.388-1.1-.99a.878.878,0,0,1,.689-.816,2.138,2.138,0,0,1,.45-.041Q-335.425,142.266-332.871,142.268Z" transform="translate(-167.64 -108.04)" fill="#54BFCC"/>
  </g>
</svg>
