<svg id="Group_29" data-name="Group 29" xmlns="http://www.w3.org/2000/svg" width="42" height="41.964" viewBox="0 0 42 41.964">
  <path id="Path_44841" data-name="Path 44841" d="M1062.147,26h2.212c.566.078,1.134.146,1.7.237a17.244,17.244,0,0,1-2.8,34.259c-5.312.014-10.624-.048-15.937-.072a1.227,1.227,0,0,1-1.21-.748,1.2,1.2,0,0,1,.325-1.416c.4-.408.821-.8,1.223-1.21.829-.847,1.651-1.7,2.494-2.57-.09-.112-.211-.257-.328-.406a16.492,16.492,0,0,1-3.425-14.315c1.6-7.106,6.1-11.551,13.173-13.344C1060.409,26.2,1061.286,26.135,1062.147,26Zm1.1,18.522q3.643,0,7.286,0a1.247,1.247,0,0,0,1.234-.709,1.219,1.219,0,0,0-1.17-1.749c-2.374-.008-4.749,0-7.123,0q-3.725,0-7.45,0a1.232,1.232,0,1,0-.023,2.458C1058.421,44.526,1060.837,44.522,1063.252,44.522Zm.041,2.459c-2.415,0-4.83,0-7.245,0a1.248,1.248,0,0,0-1.253.746,1.229,1.229,0,0,0,1.233,1.713q4.257.006,8.514,0,3.009,0,6.017,0a1.232,1.232,0,1,0,.02-2.458C1068.151,46.978,1065.722,46.981,1063.293,46.981Zm.006-7.376q3.623,0,7.246,0a1.245,1.245,0,0,0,1.249-.752,1.224,1.224,0,0,0-1.2-1.706c-2.879-.006-5.758,0-8.637,0q-2.967,0-5.936,0a1.232,1.232,0,1,0-.009,2.458C1058.443,39.608,1060.871,39.6,1063.3,39.6Z" transform="translate(-1045.964 -26)" fill="#fff"/>
  <path id="Path_44842" data-name="Path 44842" d="M1096.833,75.293a1.575,1.575,0,0,1-1.649.914c-5.079,0-10.158.04-15.237.07a17.181,17.181,0,0,1-12.176-4.689c-.07-.065-.138-.132-.2-.2a.672.672,0,0,1-.053-.129c.164,0,.305,0,.448,0,1.9-.016,3.8.065,5.69-.068a18.8,18.8,0,0,0,12.65-5.974,19.209,19.209,0,0,0,5.5-14.589,36.161,36.161,0,0,0-.589-3.958c-.021-.131-.061-.258-.093-.387l.115-.083c.744.863,1.545,1.685,2.224,2.6a16.847,16.847,0,0,1,3.3,8.767,2.961,2.961,0,0,0,.072.352v2.213a3.979,3.979,0,0,0-.072.394,16.561,16.561,0,0,1-2.366,7.323c-.523.857-1.132,1.661-1.638,2.4,1.113,1.159,2.233,2.316,3.34,3.485.268.282.492.6.737.909Z" transform="translate(-1054.833 -34.314)" fill="#fff"/>
</svg>
