<svg id="Group_16762" data-name="Group 16762" xmlns="http://www.w3.org/2000/svg" width="13.805" height="13.809" viewBox="0 0 13.805 13.809">
  <path id="Path_47454" data-name="Path 47454" d="M1372.25,1001.7v.809c-.008.048-.018.1-.025.143-.043.3-.068.6-.132.891a6.9,6.9,0,1,1-11.929-5.989,6.779,6.779,0,0,1,3.993-2.246c.26-.046.523-.072.785-.107h.809a.726.726,0,0,0,.1.022,6.568,6.568,0,0,1,3.012.95,6.814,6.814,0,0,1,3.276,4.743C1372.191,1001.174,1372.214,1001.438,1372.25,1001.7Zm-6.91,6.3a5.9,5.9,0,1,0-5.89-5.91A5.91,5.91,0,0,0,1365.34,1008Z" transform="translate(-1358.444 -995.2)" fill="#d1d1d1"/>
  <path id="Path_47455" data-name="Path 47455" d="M1415.026,1029.685c.713,0,1.4,0,2.1,0a.9.9,0,0,1,.226.023.5.5,0,0,1-.1.977c-.031,0-.063,0-.094,0q-1.287,0-2.574,0a.5.5,0,0,1-.559-.558q0-1.725,0-3.45a.5.5,0,0,1,.407-.513.482.482,0,0,1,.543.278.81.81,0,0,1,.051.3c0,.921,0,1.842,0,2.763Z" transform="translate(-1407.958 -1022.781)" fill="#d1d1d1"/>
</svg>
