<svg xmlns="http://www.w3.org/2000/svg" width="42" height="42.076" viewBox="0 0 42 42.076">
  <g id="Group_32" data-name="Group 32" transform="translate(0 0)">
    <path id="Path_44853" data-name="Path 44853" d="M1253.752,46.287a12.736,12.736,0,0,1-.513,1.3.7.7,0,0,1-1.224.183q-4.464-4.462-8.917-8.935a.7.7,0,0,1,.167-1.2,13.009,13.009,0,0,1,1.242-.527h1.113a5.292,5.292,0,0,1,2.631,1.723q1.844,1.91,3.751,3.759a5.387,5.387,0,0,1,1.75,2.666Z" transform="translate(-1211.752 -37.11)" fill="#fff"/>
    <path id="Path_44854" data-name="Path 44854" d="M1151.063,148.134a5.389,5.389,0,0,1-2.66-1.753c-1.452-1.494-2.944-2.95-4.408-4.432a3.459,3.459,0,0,1-.59-4.249c.355-.611.815-.684,1.311-.188q4.406,4.405,8.8,8.818c.511.513.447,1-.2,1.334a11.712,11.712,0,0,1-1.228.47Z" transform="translate(-1142.927 -106.058)" fill="#fff"/>
    <path id="Path_44855" data-name="Path 44855" d="M1228.687,54.1a3.175,3.175,0,0,1-.894,2.177c-1.1,1.138-2.2,2.282-3.36,3.361a3.446,3.446,0,0,1-4.918-.219q-3.2-3.19-6.384-6.394t-6.38-6.4a3.48,3.48,0,0,1-.547-4.425,4.6,4.6,0,0,1,.6-.725q1.411-1.434,2.841-2.851a3.492,3.492,0,0,1,5.206-.011q6.36,6.357,12.708,12.725A3.678,3.678,0,0,1,1228.687,54.1Z" transform="translate(-1186.82 -37.342)" fill="#fff"/>
    <path id="Path_44856" data-name="Path 44856" d="M1159.747,123.015a3.567,3.567,0,0,1-2.6-1.129q-2.912-2.932-5.837-5.851l-6.775-6.79a3.536,3.536,0,0,1,0-5.4q1.361-1.365,2.723-2.727a3.5,3.5,0,0,1,5.267,0q6.31,6.317,12.614,12.638a3.524,3.524,0,0,1,0,5.309c-.946.952-1.9,1.9-2.843,2.85A3.519,3.519,0,0,1,1159.747,123.015Z" transform="translate(-1143.166 -81.071)" fill="#fff"/>
    <path id="Path_44857" data-name="Path 44857" d="M1186.223,89.735a4.4,4.4,0,0,1,.549-1q3.712-3.766,7.465-7.493a1.358,1.358,0,0,1,2.022.016q2.37,2.354,4.719,4.729a1.361,1.361,0,0,1,0,2.026q-3.709,3.74-7.441,7.456a1.366,1.366,0,0,1-2.054-.017c-1.568-1.561-3.137-3.121-4.68-4.706A4.815,4.815,0,0,1,1186.223,89.735Z" transform="translate(-1172.875 -67.329)" fill="#fff"/>
  </g>
</svg>
