<svg id="eye" xmlns="http://www.w3.org/2000/svg" width="20.061" height="10.579" viewBox="0 0 20.061 10.579">
  <g id="Group_5" data-name="Group 5" transform="translate(0 0)">
    <path id="Path_6" data-name="Path 6" d="M19.886,125.871a21.906,21.906,0,0,0-5.024-3.571h0A10.961,10.961,0,0,0,10.03,121,11.009,11.009,0,0,0,5.2,122.3h0a21.906,21.906,0,0,0-5.022,3.57.588.588,0,0,0,0,.836,22.045,22.045,0,0,0,3.052,2.423,12.637,12.637,0,0,0,6.8,2.449,12.637,12.637,0,0,0,6.8-2.449,22.044,22.044,0,0,0,3.053-2.423.588.588,0,0,0,0-.836Zm-9.856,2.181a4.118,4.118,0,0,1-4.052-4.826,12.637,12.637,0,0,1,1.412-.577,2.939,2.939,0,1,0,5.28,0,12.477,12.477,0,0,1,1.413.578A4.118,4.118,0,0,1,10.03,128.053Z" transform="translate(0 -121)" fill="#a8a5a5"/>
  </g>
</svg>
