<svg xmlns="http://www.w3.org/2000/svg" width="37.138" height="33.865" viewBox="0 0 37.138 33.865">
  <g id="Group_17190" data-name="Group 17190" transform="translate(461.11 -577.692)">
    <path id="Path_47935" data-name="Path 47935" d="M-461.11,593.535c.094-.654.164-1.313.286-1.962a16.615,16.615,0,0,1,6.639-10.606,16.2,16.2,0,0,1,9.941-3.275,16.588,16.588,0,0,1,13.012,6.022,22.734,22.734,0,0,1,1.585,2.2,1.113,1.113,0,0,1-.224,1.7,1.145,1.145,0,0,1-1.634-.57,14.406,14.406,0,0,0-5.034-5.062,14.539,14.539,0,0,0-6.887-2.1,14.467,14.467,0,0,0-8.889,2.442,14.5,14.5,0,0,0-4.989,5.586,14.359,14.359,0,0,0-1.616,7.234,14.481,14.481,0,0,0,3.7,9.224,14,14,0,0,0,8.055,4.687,14.428,14.428,0,0,0,14.272-4.925,23.856,23.856,0,0,0,1.534-2.149,1.058,1.058,0,0,1,1.121-.5.959.959,0,0,1,.855.861,1.524,1.524,0,0,1-.207.883,16.305,16.305,0,0,1-10.916,7.9,16.439,16.439,0,0,1-16.387-5.355,16.313,16.313,0,0,1-4.126-9.395c-.026-.225-.058-.449-.087-.674Z" fill="#764C99"/>
    <path id="Path_47936" data-name="Path 47936" d="M-321.606,724.428c0-.543,0-1.037,0-1.531a1.143,1.143,0,0,1,.609-1.145,1.149,1.149,0,0,1,1.253.172c1.23.874,2.469,1.737,3.7,2.612a1.1,1.1,0,0,1,0,1.959c-1.239.883-2.486,1.754-3.728,2.633a1.125,1.125,0,0,1-1.223.152,1.125,1.125,0,0,1-.611-1.107c0-.506,0-1.012,0-1.569h-18.78c-.862,0-1.379-.408-1.379-1.088s.517-1.088,1.379-1.088h18.782Z" transform="translate(-108.524 -130.893)" fill="#764C99"/>
  </g>
</svg>
