<svg id="mute_off" xmlns="http://www.w3.org/2000/svg" width="11.844" height="19.94" viewBox="0 0 11.844 19.94">
  <g id="Group_2439" data-name="Group 2439" transform="translate(2.557)">
    <path id="Path_5573" data-name="Path 5573" d="M1476.948,969.087h-.108a3.344,3.344,0,0,1-3.341-3.341v-5.905a3.344,3.344,0,0,1,3.341-3.341h.108a3.344,3.344,0,0,1,3.341,3.341v5.905A3.344,3.344,0,0,1,1476.948,969.087Zm-.108-11.29a2.046,2.046,0,0,0-2.044,2.044v5.905a2.046,2.046,0,0,0,2.044,2.044h.108a2.046,2.046,0,0,0,2.044-2.044v-5.905a2.046,2.046,0,0,0-2.044-2.044Z" transform="translate(-1473.5 -956.5)" fill="#a8a5a5"/>
  </g>
  <rect id="Rectangle_698" data-name="Rectangle 698" width="1.373" height="4.119" transform="translate(5.15 14.875)" fill="#a8a5a5"/>
  <rect id="Rectangle_699" data-name="Rectangle 699" width="1.297" height="5.34" transform="translate(3.205 19.94) rotate(-90)" fill="#a8a5a5"/>
  <path id="Path_5575" data-name="Path 5575" d="M1450.225,1078v.4a4.224,4.224,0,0,1-4.219,4.219h-.2a4.224,4.224,0,0,1-4.22-4.219v-.4h-1.6v.4a5.828,5.828,0,0,0,5.821,5.821h.2a5.828,5.828,0,0,0,5.821-5.821v-.4Z" transform="translate(-1439.983 -1068.732)" fill="#a8a5a5"/>
</svg>
