<svg id="Group_17082" data-name="Group 17082" xmlns="http://www.w3.org/2000/svg" width="28.693" height="28.127" viewBox="0 0 28.693 28.127">
  <g id="Group_17081" data-name="Group 17081" transform="translate(0)">
    <path id="Path_47920" data-name="Path 47920" d="M-89.844,1196.789a1.123,1.123,0,0,1-1.168.733c-.278,0-.555,0-.861,0v.38q0,9.889,0,19.777a1.577,1.577,0,0,1-1.139,1.663,2.354,2.354,0,0,1-.58.076c-.476.01-.953-.011-1.428.006a1.672,1.672,0,0,1-1.8-1.783c.022-6.564.011-13.129.011-19.694v-.424c-.249,0-.47.006-.69,0a2.833,2.833,0,0,1-.555-.049.891.891,0,0,1-.559-1.482c.359-.5.752-.976,1.13-1.463q1.015-1.3,2.032-2.605a1.307,1.307,0,0,1,2.22-.006q1.552,1.967,3.081,3.954a4.677,4.677,0,0,1,.308.525Z" transform="translate(118.537 -1191.305)" fill="#764C99"/>
    <path id="Path_47921" data-name="Path 47921" d="M-130.815,1256.783c0-2.539.024-5.08-.011-7.619a1.694,1.694,0,0,1,1.813-1.807c.493.032.99,0,1.484.007a1.623,1.623,0,0,1,1.65,1.624c0,.056,0,.112,0,.168q0,7.648,0,15.3a1.727,1.727,0,0,1-.6,1.417,1.655,1.655,0,0,1-1.088.378c-.495,0-.99,0-1.485,0a1.632,1.632,0,0,1-1.767-1.76Q-130.818,1260.636-130.815,1256.783Z" transform="translate(145.26 -1238.13)" fill="#764C99"/>
    <path id="Path_47922" data-name="Path 47922" d="M-174.276,1280.915q0-2.759,0-5.517a1.621,1.621,0,0,1,1.746-1.746c.523,0,1.046,0,1.568,0a1.6,1.6,0,0,1,1.617,1.621q.008,5.657,0,11.314a1.606,1.606,0,0,1-1.591,1.623c-.578.021-1.158.019-1.736,0a1.613,1.613,0,0,1-1.6-1.667C-174.279,1284.668-174.276,1282.791-174.276,1280.915Z" transform="translate(181.561 -1260.099)" fill="#764C99"/>
    <path id="Path_47923" data-name="Path 47923" d="M-213.6,1302.232c0,1.177,0,2.353,0,3.53a1.751,1.751,0,0,1-1.822,1.843c-.439,0-.878.007-1.316,0a1.751,1.751,0,0,1-1.794-1.816q-.005-3.558,0-7.115a1.747,1.747,0,0,1,1.8-1.812q.672-.006,1.344,0a1.742,1.742,0,0,1,1.792,1.786C-213.6,1299.842-213.6,1301.037-213.6,1302.232Z" transform="translate(218.539 -1279.488)" fill="#764C99"/>
  </g>
</svg>
