<svg xmlns="http://www.w3.org/2000/svg" width="42" height="41.748" viewBox="0 0 42 41.748">
  <g id="Group_39" data-name="Group 39" transform="translate(0)">
    <path id="Path_44848" data-name="Path 44848" d="M991.89,198.987h.495c2.265,0,4.529,0,6.794,0a1.919,1.919,0,0,1,1.876,1.208.8.8,0,0,1,0,.586,1.91,1.91,0,0,1-1.834,1.208c-.958.015-1.918,0-2.876,0h-.426v1h.4c.973,0,1.945-.01,2.918,0a1.966,1.966,0,0,1,1.787,1.1.749.749,0,0,1,.01.787A1.981,1.981,0,0,1,999.21,206c-1.083.011-2.166,0-3.28,0v1c.864,0,1.735-.007,2.6,0a1.915,1.915,0,0,1,1.846,1.19.847.847,0,0,1,0,.624,1.9,1.9,0,0,1-1.806,1.187c-.873.017-1.747,0-2.647,0v1c.67,0,1.333-.014,1.995,0a1.873,1.873,0,0,1,1.758,1.126.973.973,0,0,1,.007.733,1.921,1.921,0,0,1-1.875,1.144h-13c-.167,0-.334,0-.5-.012-.953-.091-1.083-.235-1.083-1.182q0-5.825-.006-11.65a.614.614,0,0,1,.317-.6,11.742,11.742,0,0,0,2.273-1.532,17.421,17.421,0,0,0,1.479-2.3,3.348,3.348,0,0,0,.62-2.182c-.056-1.139-.017-2.282-.013-3.423,0-.605.3-.852.9-.777a3.173,3.173,0,0,1,3.087,3.466C991.914,195.522,991.89,197.22,991.89,198.987Z" transform="translate(-965.892 -173.278)" fill="#fff"/>
    <path id="Path_44849" data-name="Path 44849" d="M953.08,225.292q0-3.381,0-6.762c0-.882.359-1.246,1.231-1.247q3.1,0,6.208,0c.878,0,1.232.359,1.232,1.246q0,6.783,0,13.566c0,.854-.367,1.226-1.21,1.227q-3.125,0-6.25,0c-.843,0-1.211-.373-1.211-1.226Q953.079,228.694,953.08,225.292Zm5.334,5.455a1,1,0,1,0-1.025.985A1.007,1.007,0,0,0,958.414,230.747Z" transform="translate(-945.422 -191.574)" fill="#fff"/>
    <path id="Path_44850" data-name="Path 44850" d="M1027.822,165c0,.556-.018,1.113.011,1.668a.71.71,0,0,0,.237.471c.787.616,1.591,1.211,2.4,1.8a1.054,1.054,0,0,1-.354,2.009c-.965.254-1.92.546-2.885.8a.6.6,0,0,0-.466.453c-.313.964-.658,1.917-.974,2.88a1.058,1.058,0,0,1-.871.842,1.071,1.071,0,0,1-1.092-.606c-.559-.863-1.128-1.72-1.716-2.563a.665.665,0,0,0-.456-.25c-1.068-.041-2.138-.058-3.207-.07a1.011,1.011,0,0,1-.806-1.7c.64-.805,1.268-1.62,1.918-2.417a.662.662,0,0,0,.144-.713c-.315-.948-.583-1.912-.889-2.864a1.075,1.075,0,0,1,.22-1.23,1.055,1.055,0,0,1,1.2-.144c.957.37,1.927.7,2.883,1.076a.557.557,0,0,0,.6-.083c.833-.6,1.679-1.185,2.514-1.785a1.024,1.024,0,0,1,1.709.917c-.02.5,0,1,0,1.5Z" transform="translate(-989.084 -154.231)" fill="#fff"/>
    <path id="Path_44851" data-name="Path 44851" d="M983.594,150.4a3.974,3.974,0,0,1-.512-.2c-.9-.465-1.8-.933-2.687-1.42a.624.624,0,0,0-.687-.006c-.887.489-1.793.943-2.685,1.424a1.03,1.03,0,0,1-1.59-1.145c.186-.969.326-1.946.513-2.915a.768.768,0,0,0-.259-.8c-.723-.672-1.416-1.375-2.127-2.06a1.043,1.043,0,0,1-.382-1.113,1.031,1.031,0,0,1,.955-.741c1.031-.143,2.058-.312,3.09-.445a.561.561,0,0,0,.489-.366c.433-.9.891-1.791,1.319-2.694a1.044,1.044,0,0,1,2.017-.019c.436.915.881,1.827,1.35,2.725a.715.715,0,0,0,.449.328c1.053.181,2.111.332,3.169.484a1.012,1.012,0,0,1,.554,1.8c-.737.718-1.459,1.452-2.216,2.148a.7.7,0,0,0-.212.736q.275,1.539.534,3.081A1.03,1.03,0,0,1,983.594,150.4Z" transform="translate(-959.042 -137.137)" fill="#fff"/>
    <path id="Path_44852" data-name="Path 44852" d="M935.531,175.937a.983.983,0,0,1-.99-.743c-.346-1-.689-1.995-1.015-3a.6.6,0,0,0-.472-.447c-.992-.262-1.975-.556-2.965-.823a1.054,1.054,0,0,1-.867-.849,1.041,1.041,0,0,1,.511-1.061c.815-.6,1.618-1.222,2.438-1.82a.636.636,0,0,0,.3-.621c-.057-1.027-.076-2.057-.123-3.085a1.029,1.029,0,0,1,.512-1.058,1.055,1.055,0,0,1,1.2.153c.835.6,1.683,1.179,2.515,1.782a.559.559,0,0,0,.6.082c.957-.371,1.925-.709,2.882-1.08a1.029,1.029,0,0,1,1.424,1.345c-.311.979-.6,1.967-.912,2.944a.571.571,0,0,0,.113.605c.638.788,1.255,1.595,1.892,2.384a1.073,1.073,0,0,1,.241,1.226,1.059,1.059,0,0,1-1.069.569c-1.013,0-2.027.048-3.04.046a.628.628,0,0,0-.6.338c-.558.863-1.135,1.715-1.7,2.572A1.035,1.035,0,0,1,935.531,175.937Z" transform="translate(-929.205 -154.232)" fill="#fff"/>
  </g>
</svg>
