<svg xmlns="http://www.w3.org/2000/svg" width="15.013" height="14.36" viewBox="0 0 15.013 14.36">
  <g id="Group_16882" data-name="Group 16882" transform="translate(351.296 -631.607)">
    <path id="Path_47896" data-name="Path 47896" d="M-351.3,702.588l1.732-2.611a.364.364,0,0,1,.322-.171c.728,0,1.456,0,2.184,0a.335.335,0,0,1,.293.55c-.215.332-.438.659-.657.988-.029.043-.054.088-.094.154h.177q2.243,0,4.485,0a1.167,1.167,0,0,1,1.183.843,1.17,1.17,0,0,1-1.007,1.5c-.082.008-.166.008-.249.008h-4.589c.04.066.065.111.094.154.219.329.442.656.657.988a.335.335,0,0,1-.293.551c-.728.005-1.456,0-2.184,0a.364.364,0,0,1-.322-.171l-1.657-2.487c-.027-.04-.05-.083-.075-.124Z" transform="translate(0 -63.89)" fill="#a8a5a5"/>
    <path id="Path_47897" data-name="Path 47897" d="M-291.878,631.607a7.251,7.251,0,0,1,7.092,5.419,7.172,7.172,0,0,1-5.4,8.76,7.023,7.023,0,0,1-5.723-1.16.336.336,0,0,1-.108-.507q.548-.9,1.106-1.8c.144-.231.328-.26.572-.093a3.969,3.969,0,0,0,1.752.7,4.1,4.1,0,0,0,3.96-1.589,3.9,3.9,0,0,0,.853-2.949,4.037,4.037,0,0,0-2.674-3.511,4.028,4.028,0,0,0-3.867.447c-.293.193-.45.159-.636-.142l-1.029-1.671c-.174-.282-.139-.421.133-.611a7.054,7.054,0,0,1,2.958-1.2C-292.5,631.641-292.105,631.628-291.878,631.607Z" transform="translate(-51.717)" fill="#a8a5a5"/>
  </g>
</svg>
