<svg xmlns="http://www.w3.org/2000/svg" width="22.226" height="22.227" viewBox="0 0 22.226 22.227">
  <g id="Group_16497" data-name="Group 16497" transform="translate(730.2 111.176)">
    <path id="Path_47418" data-name="Path 47418" d="M-724.205-88.823a2.9,2.9,0,0,1-1.281-.544c-.1-.083-.2-.167-.292-.259q-1.953-1.96-3.9-3.923a1.619,1.619,0,0,1-.428-1.735,1.633,1.633,0,0,1,1.36-1.159,2,2,0,0,1,.346-.019q1.682,0,3.363,0h.268v-.282q0-6.672,0-13.344a.878.878,0,0,1,.495-.868.864.864,0,0,1,1.24.72c0,.05,0,.1,0,.152q0,6.769,0,13.539a1.732,1.732,0,0,1-1.488,1.8,2.268,2.268,0,0,1-.367.02c-1.15,0-2.3,0-3.483,0a1.8,1.8,0,0,0,.112.142q1.85,1.863,3.7,3.724a.86.86,0,0,0,1.258.054c.1-.092.195-.194.293-.29l3.611-3.537-.054-.094c-.276,0-.551.007-.827,0a.862.862,0,0,1-.8-1.144.778.778,0,0,1,.7-.573,6.31,6.31,0,0,1,1.4.03,1.676,1.676,0,0,1,1.047,2.635,2.632,2.632,0,0,1-.271.309q-1.888,1.9-3.778,3.8a2.638,2.638,0,0,1-1.542.813.335.335,0,0,0-.079.033Z" transform="translate(0 -0.126)" fill="#764C99"/>
    <path id="Path_47419" data-name="Path 47419" d="M-495.538-104.964a1.067,1.067,0,0,0-.045.118,1.691,1.691,0,0,1-1.671,1.314c-.311,0-.622.005-.933,0a.865.865,0,0,1-.866-.872.865.865,0,0,1,.876-.861c.26,0,.52,0,.808,0a.744.744,0,0,0-.073-.11q-1.872-1.887-3.747-3.77a.85.85,0,0,0-1.273-.011q-1.893,1.9-3.779,3.8c-.015.015-.027.034-.073.091h.248q1.638,0,3.276,0a1.736,1.736,0,0,1,1.826,1.826q0,6.7.006,13.409a.993.993,0,0,1-.7,1.083H-502a.991.991,0,0,1-.7-1.082q.016-6.606.006-13.212v-.288h-3.646a1.7,1.7,0,0,1-1.648-1.048,1.694,1.694,0,0,1,.425-1.907q1.9-1.916,3.81-3.83a2.593,2.593,0,0,1,3.853,0c1.266,1.27,2.527,2.546,3.8,3.812a2.188,2.188,0,0,1,.571,1.024Z" transform="translate(-212.435)" fill="#764C99"/>
  </g>
</svg>
