<?xml version="1.0" encoding="utf-8"?>
<!-- Generator: Adobe Illustrator 25.2.1, SVG Export Plug-In . SVG Version: 6.00 Build 0)  -->
<svg version="1.1" id="Layer_1" xmlns="http://www.w3.org/2000/svg" xmlns:xlink="http://www.w3.org/1999/xlink" x="0px" y="0px"
	 viewBox="0 0 17.1 16" style="enable-background:new 0 0 17.1 16;" xml:space="preserve">
<style type="text/css">
	.st0{fill:#FFFFFF;}
	.st1{fill:#2AB790;}
</style>
<g id="Group_16361" transform="translate(-1445 -1025)">
	<g id="Ellipse_1378" transform="translate(1445 1025)">
		<g>
			<circle class="st0" cx="8" cy="8" r="8"/>
		</g>
		<g>
			<path class="st0" d="M8,16c-4.4,0-8-3.6-8-8s3.6-8,8-8s8,3.6,8,8S12.4,16,8,16z M8,1C4.1,1,1,4.1,1,8c0,3.9,3.1,7,7,7
				c3.9,0,7-3.1,7-7C15,4.1,11.9,1,8,1z"/>
		</g>
	</g>
	<g id="Path_47401">
		<polygon class="st1" points="1453.2,1037 1448.3,1032 1449.7,1030.6 1453.2,1034.2 1460.7,1026.7 1462.1,1028.1 		"/>
	</g>
</g>
</svg>
