<svg xmlns="http://www.w3.org/2000/svg" width="21.464" height="21.471" viewBox="0 0 21.464 21.471">
  <g id="Group_16762" data-name="Group 16762" transform="translate(-1358.444 -995.199)">
    <path id="Path_47454" data-name="Path 47454" d="M1379.908,1005.3v1.258c-.013.074-.028.148-.039.222-.067.462-.105.93-.2,1.386a10.727,10.727,0,1,1-18.547-9.311,10.538,10.538,0,0,1,6.208-3.492c.4-.072.814-.112,1.221-.167h1.257a1.154,1.154,0,0,0,.162.035,10.212,10.212,0,0,1,4.683,1.477,10.594,10.594,0,0,1,5.093,7.375C1379.816,1004.489,1379.853,1004.9,1379.908,1005.3Zm-10.743,9.8a9.168,9.168,0,1,0-9.158-9.189A9.188,9.188,0,0,0,1369.165,1015.1Z" transform="translate(0 0)" fill="#fff"/>
    <path id="Path_47455" data-name="Path 47455" d="M1415.583,1031.641c1.109,0,2.184,0,3.259,0a1.391,1.391,0,0,1,.352.036.774.774,0,0,1-.154,1.52c-.049,0-.1.006-.146.006q-2,0-4,0a.782.782,0,0,1-.869-.868q0-2.682,0-5.364a.77.77,0,0,1,.633-.8.75.75,0,0,1,.844.432,1.259,1.259,0,0,1,.079.467c.006,1.432,0,2.864,0,4.3Z" transform="translate(-46.151 -25.708)" fill="#fff"/>
  </g>
</svg>
