<svg xmlns="http://www.w3.org/2000/svg" width="38.183" height="30.538" viewBox="0 0 38.183 30.538">
  <path id="Path_48792" data-name="Path 48792" d="M393.313,868.766l6.574-5.475-6.571-5.478c0,.649.013,1.186,0,1.723a1.847,1.847,0,0,1-1.386,1.767,3.22,3.22,0,0,1-.8.068q-4.338.007-8.677,0h-.583c0,.209,0,.368,0,.527,0,1.088,0,2.176,0,3.264a1.8,1.8,0,0,1-1.1,1.75,1.824,1.824,0,0,1-2.049-.279q-5.708-4.745-11.405-9.5a1.911,1.911,0,0,1,.146-3.08q4.36-3.638,8.725-7.27c.813-.677,1.63-1.35,2.438-2.033a1.883,1.883,0,0,1,2.155-.35,1.86,1.86,0,0,1,1.089,1.847c-.008,1.043,0,2.087,0,3.13v.546c.559,0,1.075-.013,1.59,0a3.646,3.646,0,0,1,.926.111,1.9,1.9,0,0,1-.454,3.693q-2.056.053-4.114,0a1.836,1.836,0,0,1-1.739-1.777c-.024-.546,0-1.094,0-1.773l-6.572,5.472,6.57,5.476c0-.648-.013-1.186,0-1.723a1.847,1.847,0,0,1,1.385-1.767,3.272,3.272,0,0,1,.8-.067q4.338-.007,8.677,0h.584c0-.552,0-1.054,0-1.555,0-.715.006-1.431,0-2.146a1.843,1.843,0,0,1,1.1-1.839,1.877,1.877,0,0,1,2.121.33q3.279,2.735,6.561,5.468,2.285,1.9,4.57,3.805a1.941,1.941,0,0,1,.024,3.287q-5.562,4.641-11.13,9.275a1.892,1.892,0,0,1-2.156.349,1.861,1.861,0,0,1-1.09-1.847c.01-1.1,0-2.206,0-3.309,0-.1-.012-.2-.023-.367-.624,0-1.23.013-1.835,0a1.912,1.912,0,0,1-1.878-2.472,1.857,1.857,0,0,1,1.718-1.34c1.341-.022,2.684-.028,4.025,0a1.848,1.848,0,0,1,1.785,1.781C393.332,867.534,393.313,868.083,393.313,868.766Z" transform="translate(-366.605 -844.204)" fill="#764C99"/>
</svg>
