<svg id="Group_16878" data-name="Group 16878" xmlns="http://www.w3.org/2000/svg" width="24.136" height="28.122" viewBox="0 0 24.136 28.122">
  <path id="Path_43848" data-name="Path 43848" d="M-13517.2-9430.818s-1.533.293,1.7.632,4.071.339,4.288.339,3.455-.678,3.455-.678,1.53.549,1.706.678,4.021,2.657,4.021,2.657.566.927.264,1.308a5.645,5.645,0,0,1-2.889,2.151c-1.66.462-7.39,1.813-7.39,1.813s-6.075-.883-6.777-1.011a26.63,26.63,0,0,1-3.936-2.533s-.264-1.519,0-1.729a38.676,38.676,0,0,1,3.671-2.657A14.276,14.276,0,0,0-13517.2-9430.818Z" transform="translate(13524.331 9448.938)" fill="#764C99" opacity="0"/>
  <ellipse id="Ellipse_558" data-name="Ellipse 558" cx="5.912" cy="7.843" rx="5.912" ry="7.843" transform="translate(5.701 0.751)" fill="#764C99" opacity="0"/>
  <g id="icons" transform="translate(0 0)">
    <path id="user2" d="M17.084,9.417c3.808,0,6.924,3.674,6.924,8.351s-3.116,8.351-6.924,8.351-6.924-3.674-6.924-8.351S13.276,9.417,17.084,9.417ZM28.508,33.363a17.955,17.955,0,0,1-11.425,4.175A17.955,17.955,0,0,1,5.659,33.363a1.585,1.585,0,0,1-.173-2.338,15.626,15.626,0,0,1,7.27-4.51,9.845,9.845,0,0,0,8.655,0,14.809,14.809,0,0,1,7.27,4.51A1.47,1.47,0,0,1,28.508,33.363Z" transform="translate(-5.045 -9.417)" fill="#764C99"/>
  </g>
</svg>
