<svg id="Group_17551" data-name="Group 17551" xmlns="http://www.w3.org/2000/svg" width="19.153" height="15.036" viewBox="0 0 19.153 15.036">
  <g id="Group_17550" data-name="Group 17550" transform="translate(0 0)">
    <path id="Path_48776" data-name="Path 48776" d="M15.957,60.014A6.583,6.583,0,0,0,3.007,61.139a3.591,3.591,0,0,0,.6,7.134H6.6v-1.2H3.605a2.394,2.394,0,1,1,0-4.788.6.6,0,0,0,.6-.6,5.386,5.386,0,0,1,10.67-1.047.6.6,0,0,0,.509.479,2.992,2.992,0,0,1-.407,5.955H12.582v1.2h2.394a4.189,4.189,0,0,0,.981-8.259Z" transform="translate(0 -55.032)" fill="#fff"/>
    <path id="Path_48777" data-name="Path 48777" d="M183.429,249.185l-2.394,2.394.844.844,1.376-1.37v5.739h1.2v-5.739l1.37,1.37.844-.844-2.394-2.394A.6.6,0,0,0,183.429,249.185Z" transform="translate(-174.264 -241.756)" fill="#fff"/>
  </g>
</svg>
