<svg id="contact-form" xmlns="http://www.w3.org/2000/svg" width="83" height="83" viewBox="0 0 83 83">
  <g id="Group_17956" data-name="Group 17956" transform="translate(0 0)">
    <path id="Path_48918" data-name="Path 48918" d="M57.409,20.4,37.957.95A3.278,3.278,0,0,0,35.664,0H3.242A3.242,3.242,0,0,0,0,3.242V79.758A3.242,3.242,0,0,0,3.242,83H55.117a3.242,3.242,0,0,0,3.242-3.242V22.7A3.258,3.258,0,0,0,57.409,20.4Zm-18.5-9.333,8.384,8.384H38.906ZM51.875,76.516H6.484V6.484H32.422V22.7a3.242,3.242,0,0,0,3.242,3.242H51.875Z" transform="translate(0 0)" fill="#764C99"/>
  </g>
  <g id="Group_17957" data-name="Group 17957" transform="translate(12.969 51.227)">
    <path id="Path_48919" data-name="Path 48919" d="M96.211,316H83.242A3.242,3.242,0,0,0,80,319.242v12.969a3.242,3.242,0,0,0,3.242,3.242H96.211a3.242,3.242,0,0,0,3.242-3.242V319.242A3.242,3.242,0,0,0,96.211,316Zm-3.242,12.969H86.484v-6.484h6.484Z" transform="translate(-80 -316)" fill="#764C99"/>
  </g>
  <g id="Group_17958" data-name="Group 17958" transform="translate(12.969 38.258)">
    <path id="Path_48920" data-name="Path 48920" d="M80,239.242a3.242,3.242,0,0,0,3.242,3.242H109.18a3.242,3.242,0,1,0,0-6.484H83.242A3.242,3.242,0,0,0,80,239.242Z" transform="translate(-80 -236)" fill="#764C99"/>
  </g>
  <g id="Group_17959" data-name="Group 17959" transform="translate(12.969 25.289)">
    <path id="Path_48921" data-name="Path 48921" d="M83.242,162.484h6.484a3.242,3.242,0,0,0,0-6.484H83.242a3.242,3.242,0,0,0,0,6.484Z" transform="translate(-80 -156)" fill="#764C99"/>
  </g>
  <g id="Group_17960" data-name="Group 17960" transform="translate(63.547 5.836)">
    <path id="Path_48922" data-name="Path 48922" d="M408.211,36H395.242A3.242,3.242,0,0,0,392,39.242V96.953a3.243,3.243,0,0,0,.342,1.45l6.484,12.969a3.242,3.242,0,0,0,5.8,0L411.111,98.4a3.241,3.241,0,0,0,.342-1.45V39.242A3.242,3.242,0,0,0,408.211,36Zm-9.727,6.484h6.484v6.484h-6.484Zm6.484,53.7-3.242,6.484-3.242-6.484V55.453h6.484Z" transform="translate(-392 -36)" fill="#54BFCC"/>
  </g>
</svg>
