<svg xmlns="http://www.w3.org/2000/svg" width="127.354" height="80.427" viewBox="0 0 127.354 80.427">
  <g id="training" transform="translate(0 -94.329)">
    <path id="Path_48923" data-name="Path 48923" d="M58.019,309.295l14.38-7.719-7.551-18.231L31.491,297.162l2.95,7.121a14.092,14.092,0,0,0,3.5,5.012H0v7.462H127.354v-7.462H58.019Z" transform="translate(0 -142.001)" fill="#54BFCC"/>
    <path id="Path_48924" data-name="Path 48924" d="M331.548,223.352l-5.712-13.789-37.413,15.5,7.265,17.54Z" transform="translate(-216.682 -86.571)" fill="#764C99"/>
    <path id="Path_48925" data-name="Path 48925" d="M83.653,124.945l6.895-2.856L84.869,108.38l-11.438,4.738A12.474,12.474,0,1,0,61.9,119.25a12.437,12.437,0,0,0-2.181,13.01l6.631,16.008,23.015-9.533Z" transform="translate(-37.715)" fill="#764C99"/>
    <path id="Path_48926" data-name="Path 48926" d="M236.314,129.111a7.419,7.419,0,0,0-5.679-13.709l-13.345,5.528,5.679,13.709Z" transform="translate(-163.242 -15.405)" fill="#764C99"/>
  </g>
</svg>
