<svg xmlns="http://www.w3.org/2000/svg" width="125" height="116.999" viewBox="0 0 125 116.999">
  <g id="Group_12" data-name="Group 12" transform="translate(-889 -37.001)">
    <text id="FITNESS_POINT" data-name="FITNESS POINT" transform="translate(889 135)" fill="#54BFCC" font-size="18" font-family="SegoeUI, Segoe UI"><tspan x="0" y="0">FITNESS POINT</tspan></text>
    <text id="Good_Tagline_Here" data-name="Good Tagline Here" transform="translate(907 151)" fill="#757575" font-size="13" font-family="Roboto-Regular, Roboto"><tspan x="0" y="0">Good Tagline Here</tspan></text>
    <g id="Group_11" data-name="Group 11" transform="translate(365 -105.039)">
      <path id="Path_6" data-name="Path 6" d="M638.82,167.808l-3.862-2.23,5.929-10.269A5.873,5.873,0,0,0,635.8,146.5H610.071a5.873,5.873,0,0,0-5.087,8.809l5.929,10.268-3.862,2.23-5.929-10.269a10.334,10.334,0,0,1,8.95-15.5H635.8a10.334,10.334,0,0,1,8.951,15.5Z" transform="translate(-27.927)" fill="#764C99"/>
      <path id="Path_7" data-name="Path 7" d="M653.384,181.692l2.786-4.826a34.9,34.9,0,0,0-33.8,0l2.786,4.826a29.357,29.357,0,0,1,28.233,0Z" transform="translate(-44.259 -21.969)" fill="#54BFCC"/>
      <path id="Path_8" data-name="Path 8" d="M753.3,206.71a29.575,29.575,0,0,1,6.865,9.082h6.088A35.138,35.138,0,0,0,756.138,201.8Z" transform="translate(-138.696 -43.1)" fill="#54BFCC"/>
      <path id="Path_9" data-name="Path 9" d="M579.183,206.71l-2.837-4.912a35.14,35.14,0,0,0-10.117,13.994h6.088A29.575,29.575,0,0,1,579.183,206.71Z" transform="translate(-3.772 -43.1)" fill="#54BFCC"/>
      <g id="Group_8" data-name="Group 8" transform="translate(572.005 159.172)">
        <path id="Path_10" data-name="Path 10" d="M605.766,217.02a21.85,21.85,0,0,1,35.431,0h5.288a26.33,26.33,0,0,0-46.007,0Z" transform="translate(-600.478 -203.5)" fill="#764C99"/>
        <path id="Path_11" data-name="Path 11" d="M641.2,344a21.851,21.851,0,0,1-35.431,0h-5.288a26.33,26.33,0,0,0,46.007,0Z" transform="translate(-600.478 -304.835)" fill="#764C99"/>
      </g>
      <path id="Path_12" data-name="Path 12" d="M625.977,344a29.4,29.4,0,0,1-52.508,0h-6.125a34.98,34.98,0,0,0,64.758,0Z" transform="translate(-4.576 -145.663)" fill="#54BFCC"/>
      <g id="Group_9" data-name="Group 9" transform="translate(616.377 175.122)">
        <rect id="Rectangle_28" data-name="Rectangle 28" width="3.611" height="21.063" rx="1.805" transform="translate(4.214 0)" fill="#54BFCC"/>
        <rect id="Rectangle_29" data-name="Rectangle 29" width="3.611" height="12.036" rx="1.805" transform="translate(9.028 4.413)" fill="#54BFCC"/>
        <path id="Path_13" data-name="Path 13" d="M763.273,278.356v8.424a1.806,1.806,0,1,1-3.613,0v-8.424a1.806,1.806,0,0,1,3.613,0Z" transform="translate(-759.66 -272.137)" fill="#54BFCC"/>
      </g>
      <rect id="Rectangle_30" data-name="Rectangle 30" width="3.611" height="21.063" rx="1.805" transform="translate(565.213 175.122)" fill="#54BFCC"/>
      <path id="Path_14" data-name="Path 14" d="M596.993,278.356v8.424a1.806,1.806,0,0,1-3.613,0v-8.424a1.806,1.806,0,0,1,3.613,0Z" transform="translate(-23.354 -97.015)" fill="#54BFCC"/>
      <rect id="Rectangle_31" data-name="Rectangle 31" width="3.611" height="12.036" rx="1.805" transform="translate(561 179.536)" fill="#54BFCC"/>
      <path id="Path_15" data-name="Path 15" d="M615.444,292.38c-.187,1.054-.357,2.11-.562,3.158a2.152,2.152,0,0,0-.034.254H606.34V292.38Z" transform="translate(-32.701 -108.432)" fill="#54BFCC"/>
      <path id="Path_16" data-name="Path 16" d="M733.544,292.38c-.257,1.054-.492,2.11-.774,3.158a1.605,1.605,0,0,0-.047.254H721V292.38Z" transform="translate(-115.399 -108.432)" fill="#54BFCC"/>
      <rect id="Rectangle_32" data-name="Rectangle 32" width="1.004" height="3.412" transform="translate(572.635 183.948)" fill="#54BFCC"/>
      <path id="Path_17" data-name="Path 17" d="M648.212,295.792H638.74a2.067,2.067,0,0,1,.036-.254c.217-1.048.4-2.1.6-3.158h5.165a2.179,2.179,0,0,1,.237.931c.022.725-.39,1.045-.817,1.477.744-.563,1.391-.086,2.035.137C646.743,295.187,647.468,295.519,648.212,295.792Z" transform="translate(-56.07 -108.432)" fill="#54BFCC"/>
      <path id="Path_18" data-name="Path 18" d="M672.344,292.486a2.615,2.615,0,0,1-.454-.106h2.127a2.209,2.209,0,0,1-.755.114C672.955,292.494,672.648,292.514,672.344,292.486Z" transform="translate(-79.979 -108.432)" fill="#54BFCC"/>
      <path id="Path_19" data-name="Path 19" d="M686.12,292.38h3.431a1.446,1.446,0,0,1-1.271.644c-.287,0-.577,0-.864,0A1.434,1.434,0,0,1,686.12,292.38Z" transform="translate(-90.242 -108.432)" fill="#54BFCC"/>
      <path id="Path_20" data-name="Path 20" d="M701.89,292.38h3.816a1.382,1.382,0,0,1-1.346,1.1c-.354.017-.714.011-1.068.008A1.313,1.313,0,0,1,701.89,292.38Z" transform="translate(-101.616 -108.432)" fill="#54BFCC"/>
      <path id="Path_21" data-name="Path 21" d="M678.319,293.2c0,.73.025,1.463-.006,2.2-.008.17-.02.34-.031.507H666.915a2.682,2.682,0,0,0-.962-.583,22.407,22.407,0,0,1-2.088-1.043c-.912-.477-.742-.167-.689-1.288.449-.1.906-.212,1.371-.284.1-.017.22.117.34.162a12.793,12.793,0,0,0,1.213.429,4.012,4.012,0,0,0,.711.014,1.9,1.9,0,0,0,1.923-.778,3.063,3.063,0,0,0,4.652.552,2.477,2.477,0,0,0,2.375,1.232c.976-.059,1.926-.095,2.408-1.19C678.221,293.146,678.269,293.171,678.319,293.2Z" transform="translate(-73.66 -108.54)" fill="#54BFCC"/>
      <rect id="Rectangle_33" data-name="Rectangle 33" width="1.21" height="3.412" transform="translate(616.377 183.948)" fill="#54BFCC"/>
      <g id="Group_10" data-name="Group 10" transform="translate(582.658 174.764)">
        <path id="Path_22" data-name="Path 22" d="M660.7,282.01c-.05-.025-.1-.05-.148-.072-.482,1.1-1.433,1.132-2.408,1.19a2.477,2.477,0,0,1-2.375-1.232,3.063,3.063,0,0,1-4.652-.552,1.9,1.9,0,0,1-1.923.778,4.011,4.011,0,0,1-.711-.014,12.793,12.793,0,0,1-1.213-.429c-.12-.045-.24-.178-.34-.162-.466.072-.923.187-1.371.284-.053,1.121-.223.811.689,1.288a22.407,22.407,0,0,0,2.088,1.043,2.682,2.682,0,0,1,.962.583,1.776,1.776,0,0,1,.482,1.068,19.543,19.543,0,0,0,.624,2.445,20.133,20.133,0,0,1-1.012-2.436,1.288,1.288,0,0,0-.82-.939c-.131-.042-.259-.089-.387-.137-.744-.273-1.469-.6-2.219-.867-.644-.223-1.291-.7-2.035-.137.427-.432.839-.753.817-1.477a2.179,2.179,0,0,0-.237-.931,5.217,5.217,0,0,0-.507-.783c.477.229.845.549,1.221.557a3.953,3.953,0,0,0,2.732-.939,3.577,3.577,0,0,0,1.227-3.077,1.381,1.381,0,0,0-.2-.039c-2.495.011-4.992,0-7.49.061a1.368,1.368,0,0,0-.948.557,5.624,5.624,0,0,0-.822,1.787c-.139.622-.265,1.249-.379,1.876-.2,1.054-.379,2.11-.6,3.158a2.054,2.054,0,0,0-.036.254,1.838,1.838,0,0,0,.524,1.53c2.135,2.258,4.259,4.538,7.359,5.514.5.159.99.382,1.483.574l-.025.084-2.5-.237q-.284,4.29-.566,8.549a19.558,19.558,0,0,0,6.478,1.1c.056,0,.114,0,.17,0q-.163-2.187-.323-4.374l.075-.008q.3,2.191.6,4.379a19.588,19.588,0,0,0,6.526-1.3q-.385-4.507-.769-9.029l-3.365.833a41.773,41.773,0,0,1,3.666-2.124,3.851,3.851,0,0,0,1.854-2.077,11.454,11.454,0,0,0,.767-3.412c.011-.167.022-.337.031-.507C660.721,283.473,660.7,282.74,660.7,282.01Zm-7.524,18.4c-.374-2.369-.747-4.739-1.123-7.142l.5-.139c.24,2.445.477,4.845.714,7.248Z" transform="translate(-638.695 -272.118)" fill="#764C99"/>
        <path id="Path_23" data-name="Path 23" d="M689.2,269.369a1.538,1.538,0,0,1-.231.842,1.446,1.446,0,0,1-1.271.644c-.287,0-.577,0-.864,0a1.433,1.433,0,0,1-1.3-.644,1.686,1.686,0,0,1-.22-.872c-.006-1.034,0-2.068,0-3.1s-.008-2.071,0-3.105a1.4,1.4,0,0,1,1.494-1.486c.307,0,.61,0,.917,0a1.413,1.413,0,0,1,1.472,1.463Q689.22,266.24,689.2,269.369Z" transform="translate(-672.321 -261.027)" fill="#764C99"/>
        <path id="Path_24" data-name="Path 24" d="M705.655,271.956a1.621,1.621,0,0,1-.039.354,1.382,1.382,0,0,1-1.346,1.1c-.354.017-.714.011-1.068.008a1.313,1.313,0,0,1-1.4-1.107,1.823,1.823,0,0,1-.028-.284c-.014-1.037,0-2.074,0-3.108,0-.967-.006-1.937,0-2.9a1.383,1.383,0,0,1,1.472-1.458c.321,0,.644,0,.967,0a1.4,1.4,0,0,1,1.444,1.438Q705.672,268.974,705.655,271.956Z" transform="translate(-684.184 -263.126)" fill="#764C99"/>
        <path id="Path_25" data-name="Path 25" d="M672.768,261.027v6.013a1.469,1.469,0,0,1-.92,1.578,2.208,2.208,0,0,1-.755.114c-.307,0-.613.02-.917-.008a2.612,2.612,0,0,1-.454-.106c-.095-.025-.2-.056-.321-.086a4.622,4.622,0,0,0,2.216-4.884h-2.723c0-1.084-.031-2.13.014-3.172.02-.457.769-1.023,1.246-1.037.337-.008.677,0,1.017,0A1.436,1.436,0,0,1,672.768,261.027Z" transform="translate(-660.468 -259.434)" fill="#764C99"/>
        <path id="Path_26" data-name="Path 26" d="M652.445,265.257c0-.817-.039-1.612.013-2.4a1.4,1.4,0,0,1,1.34-1.158c.322,0,.644,0,.967,0a1.44,1.44,0,0,1,1.547,1.5c.01.674,0,1.348,0,2.059Z" transform="translate(-648.602 -261.065)" fill="#764C99"/>
      </g>
    </g>
  </g>
</svg>
