<svg xmlns="http://www.w3.org/2000/svg" width="960" height="217.068" viewBox="0 0 960 217.068">
  <g id="Path_44769" data-name="Path 44769" fill="#fff">
    <path d="M 55.45768356323242 216.4376525878906 L 39.90188217163086 204.3701782226562 L 39.7665901184082 204.2652435302734 L 39.59541320800781 204.2652435302734 L 4 204.2652435302734 C 2.070117712020874 204.2652435302734 0.5 202.3657073974609 0.5 200.03076171875 L 0.5 4.734415054321289 C 0.5 2.399591445922852 2.070117712020874 0.5000620484352112 4 0.5000620484352112 L 956 0.5000620484352112 C 957.9298706054688 0.5000620484352112 959.5 2.399591445922852 959.5 4.734415054321289 L 959.5 200.03076171875 C 959.5 202.3657073974609 957.9298706054688 204.2652435302734 956 204.2652435302734 L 71.59400177001953 204.2652435302734 L 71.42517852783203 204.2652435302734 L 71.29082489013672 204.3675842285156 L 55.45768356323242 216.4376525878906 Z" stroke="none"/>
    <path d="M 4 0.99993896484375 C 2.34576416015625 0.99993896484375 1 2.67523193359375 1 4.734420776367188 L 1 200.03076171875 C 1 202.0899505615234 2.34576416015625 203.7652435302734 4 203.7652435302734 L 39.937744140625 203.7652435302734 L 40.2083740234375 203.9751281738281 L 55.46038818359375 215.8068084716797 L 71.25634765625 203.7652435302734 L 956 203.7652435302734 C 957.6542358398438 203.7652435302734 959 202.0899505615234 959 200.03076171875 L 959 4.734420776367188 C 959 2.67523193359375 957.6542358398438 0.99993896484375 956 0.99993896484375 L 4 0.99993896484375 M 4 -6.103515625e-05 L 956 -6.103515625e-05 C 958.2091674804688 -6.103515625e-05 960 2.119705200195312 960 4.734420776367188 L 960 200.03076171875 C 960 202.6455993652344 958.2091674804688 204.7652435302734 956 204.7652435302734 L 71.593994140625 204.7652435302734 L 55.455078125 217.0682983398438 L 39.59539794921875 204.7652435302734 L 4 204.7652435302734 C 1.79083251953125 204.7652435302734 0 202.6455993652344 0 200.03076171875 L 0 4.734420776367188 C 0 2.119705200195312 1.79083251953125 -6.103515625e-05 4 -6.103515625e-05 Z" stroke="none" fill="#efefef"/>
  </g>
</svg>
